<svg xmlns="http://www.w3.org/2000/svg" xmlns:xlink="http://www.w3.org/1999/xlink" viewBox="0 0 705 630" width="705" height="630" preserveAspectRatio="xMidYMid meet" style="width: 100%; height: 100%; transform: translate3d(0px, 0px, 0px); content-visibility: visible;"><defs><clipPath id="__lottie_element_688"><rect width="705" height="630" x="0" y="0"></rect></clipPath></defs><g clip-path="url(#__lottie_element_688)"><g transform="matrix(0.9999923706054688,0,0,0.9999923706054688,349.3340148925781,275.7820129394531)" opacity="1" style="display: block;"><g opacity="1" transform="matrix(3,0,0,3,0,0)"><path fill="rgb(30,36,58)" fill-opacity="1" d=" M-9.189000129699707,-26.599000930786133 C-9.559000015258789,-26.599000930786133 -9.918999671936035,-26.819000244140625 -10.069000244140625,-27.179000854492188 C-10.279000282287598,-27.66900062561035 -10.048999786376953,-28.229000091552734 -9.569000244140625,-28.43899917602539 C-9.569000244140625,-28.43899917602539 13.651000022888184,-38.32899856567383 13.651000022888184,-38.32899856567383 C14.140999794006348,-38.53900146484375 14.701000213623047,-38.308998107910156 14.91100025177002,-37.82899856567383 C15.121000289916992,-37.3390007019043 14.890999794006348,-36.77899932861328 14.41100025177002,-36.569000244140625 C14.41100025177002,-36.569000244140625 -8.819000244140625,-26.679000854492188 -8.819000244140625,-26.679000854492188 C-8.939000129699707,-26.628999710083008 -9.069000244140625,-26.599000930786133 -9.189000129699707,-26.599000930786133 M30.371000289916992,-47.79899978637695 C30.371000289916992,-47.79899978637695 -13.569000244140625,-47.79899978637695 -13.569000244140625,-47.79899978637695 C-14.098999977111816,-47.79899978637695 -14.529000282287598,-48.229000091552734 -14.529000282287598,-48.75899887084961 C-14.529000282287598,-49.28900146484375 -14.098999977111816,-49.71900177001953 -13.569000244140625,-49.71900177001953 C-13.569000244140625,-49.71900177001953 30.371000289916992,-49.71900177001953 30.371000289916992,-49.71900177001953 C30.900999069213867,-49.71900177001953 31.33099937438965,-49.28900146484375 31.33099937438965,-48.75899887084961 C31.33099937438965,-48.229000091552734 30.900999069213867,-47.79899978637695 30.371000289916992,-47.79899978637695 M7.2210001945495605,-51.92399978637695 C7.2210001945495605,-51.92399978637695 -13.569000244140625,-51.92399978637695 -13.569000244140625,-51.92399978637695 C-14.098999977111816,-51.92399978637695 -14.529000282287598,-52.354000091552734 -14.529000282287598,-52.88399887084961 C-14.529000282287598,-53.41400146484375 -14.098999977111816,-53.84400177001953 -13.569000244140625,-53.84400177001953 C-13.569000244140625,-53.84400177001953 7.2210001945495605,-53.84400177001953 7.2210001945495605,-53.84400177001953 C7.750999927520752,-53.84400177001953 8.180999755859375,-53.41400146484375 8.180999755859375,-52.88399887084961 C8.180999755859375,-52.354000091552734 7.750999927520752,-51.92399978637695 7.2210001945495605,-51.92399978637695 M-16.739999771118164,-44.6349983215332 C-17.270000457763672,-44.6349983215332 -17.700000762939453,-45.064998626708984 -17.700000762939453,-45.595001220703125 C-17.700000762939453,-45.595001220703125 -17.700000762939453,-55.904998779296875 -17.700000762939453,-55.904998779296875 C-17.700000762939453,-56.435001373291016 -17.270000457763672,-56.8650016784668 -16.739999771118164,-56.8650016784668 C-16.209999084472656,-56.8650016784668 -15.779999732971191,-56.435001373291016 -15.779999732971191,-55.904998779296875 C-15.779999732971191,-55.904998779296875 -15.779999732971191,-45.595001220703125 -15.779999732971191,-45.595001220703125 C-15.779999732971191,-45.064998626708984 -16.209999084472656,-44.6349983215332 -16.739999771118164,-44.6349983215332 M-23.28,-47.77 C-24.97,-47.77 -26.34,-49.14 -26.34,-50.82 C-26.34,-52.51 -24.97,-53.88 -23.28,-53.88 C-21.59,-53.88 -20.22,-52.51 -20.22,-50.82 C-20.22,-49.14 -21.59,-47.77 -23.28,-47.77 M-23.29,-51.97 C-23.92,-51.97 -24.43,-51.46 -24.43,-50.83 C-24.43,-50.2 -23.92,-49.69 -23.29,-49.69 C-22.66,-49.69 -22.14,-50.2 -22.14,-50.83 C-22.14,-51.46 -22.66,-51.97 -23.29,-51.97 M-32.73,-47.77 C-34.42,-47.77 -35.79,-49.14 -35.79,-50.82 C-35.79,-52.51 -34.42,-53.88 -32.73,-53.88 C-31.04,-53.88 -29.67,-52.51 -29.67,-50.82 C-29.67,-49.14 -31.04,-47.77 -32.73,-47.77 M-32.73,-51.97 C-33.36,-51.97 -33.87,-51.46 -33.87,-50.83 C-33.87,-50.2 -33.36,-49.69 -32.73,-49.69 C-32.1,-49.69 -31.58,-50.2 -31.58,-50.83 C-31.58,-51.46 -32.1,-51.97 -32.73,-51.97 M-42.17,-47.77 C-43.86,-47.77 -45.23,-49.14 -45.23,-50.82 C-45.23,-52.51 -43.86,-53.88 -42.17,-53.88 C-40.48,-53.88 -39.11,-52.51 -39.11,-50.82 C-39.11,-49.14 -40.48,-47.77 -42.17,-47.77 M-42.18,-51.97 C-42.81,-51.97 -43.32,-51.46 -43.32,-50.83 C-43.32,-50.2 -42.81,-49.69 -42.18,-49.69 C-41.55,-49.69 -41.03,-50.2 -41.03,-50.83 C-41.03,-51.46 -41.55,-51.97 -42.18,-51.97 M49.24399948120117,-43.96900177001953 C49.24399948120117,-43.96900177001953 -49.25600051879883,-43.96900177001953 -49.25600051879883,-43.96900177001953 C-49.7859992980957,-43.96900177001953 -50.215999603271484,-44.39899826049805 -50.215999603271484,-44.92900085449219 C-50.215999603271484,-45.45899963378906 -49.7859992980957,-45.888999938964844 -49.25600051879883,-45.888999938964844 C-49.25600051879883,-45.888999938964844 49.24399948120117,-45.888999938964844 49.24399948120117,-45.888999938964844 C49.77399826049805,-45.888999938964844 50.20399856567383,-45.45899963378906 50.20399856567383,-44.92900085449219 C50.20399856567383,-44.39899826049805 49.77399826049805,-43.96900177001953 49.24399948120117,-43.96900177001953 M14.031000137329102,-1.2580000162124634 C13.901000022888184,-1.2580000162124634 13.781000137329102,-1.2879999876022339 13.651000022888184,-1.3380000591278076 C13.651000022888184,-1.3380000591278076 -9.569000244140625,-11.227999687194824 -9.569000244140625,-11.227999687194824 C-10.048999786376953,-11.437999725341797 -10.279000282287598,-11.998000144958496 -10.069000244140625,-12.48799991607666 C-9.869000434875488,-12.968000411987305 -9.298999786376953,-13.197999954223633 -8.819000244140625,-12.98799991607666 C-8.819000244140625,-12.98799991607666 14.41100025177002,-3.0980000495910645 14.41100025177002,-3.0980000495910645 C14.890999794006348,-2.888000011444092 15.121000289916992,-2.328000068664551 14.91100025177002,-1.8380000591278076 C14.76099967956543,-1.4780000448226929 14.401000022888184,-1.2580000162124634 14.031000137329102,-1.2580000162124634 M-14.894000053405762,-12.003000259399414 C-14.894000053405762,-12.003000259399414 -22.3439998626709,-12.003000259399414 -22.3439998626709,-12.003000259399414 C-22.874000549316406,-12.003000259399414 -23.304000854492188,-12.432999610900879 -23.304000854492188,-12.963000297546387 C-23.304000854492188,-12.963000297546387 -23.304000854492188,-26.51300048828125 -23.304000854492188,-26.51300048828125 C-23.304000854492188,-27.042999267578125 -22.874000549316406,-27.472999572753906 -22.3439998626709,-27.472999572753906 C-22.3439998626709,-27.472999572753906 -14.894000053405762,-27.472999572753906 -14.894000053405762,-27.472999572753906 C-14.37399959564209,-27.472999572753906 -13.944000244140625,-27.042999267578125 -13.944000244140625,-26.51300048828125 C-13.944000244140625,-25.982999801635742 -14.37399959564209,-25.55299949645996 -14.894000053405762,-25.55299949645996 C-14.894000053405762,-25.55299949645996 -21.384000778198242,-25.55299949645996 -21.384000778198242,-25.55299949645996 C-21.384000778198242,-25.55299949645996 -21.384000778198242,-13.92300033569336 -21.384000778198242,-13.92300033569336 C-21.384000778198242,-13.92300033569336 -14.894000053405762,-13.92300033569336 -14.894000053405762,-13.92300033569336 C-14.37399959564209,-13.92300033569336 -13.944000244140625,-13.493000030517578 -13.944000244140625,-12.963000297546387 C-13.944000244140625,-12.432999610900879 -14.37399959564209,-12.003000259399414 -14.894000053405762,-12.003000259399414 M19.389999389648438,1.9950000047683716 C19.389999389648438,1.9950000047683716 14.079999923706055,1.9950000047683716 14.079999923706055,1.9950000047683716 C13.550000190734863,1.9950000047683716 13.119999885559082,1.565000057220459 13.119999885559082,1.034999966621399 C13.119999885559082,1.034999966621399 13.119999885559082,-17.604999542236328 13.119999885559082,-17.604999542236328 C13.119999885559082,-18.135000228881836 13.550000190734863,-18.55500030517578 14.079999923706055,-18.55500030517578 C14.609999656677246,-18.55500030517578 15.039999961853027,-18.135000228881836 15.039999961853027,-17.604999542236328 C15.039999961853027,-17.604999542236328 15.039999961853027,0.07500000298023224 15.039999961853027,0.07500000298023224 C15.039999961853027,0.07500000298023224 18.43000030517578,0.07500000298023224 18.43000030517578,0.07500000298023224 C18.43000030517578,0.07500000298023224 18.43000030517578,-38.665000915527344 18.43000030517578,-38.665000915527344 C18.43000030517578,-38.665000915527344 15.039999961853027,-38.665000915527344 15.039999961853027,-38.665000915527344 C15.039999961853027,-38.665000915527344 15.039999961853027,-27.915000915527344 15.039999961853027,-27.915000915527344 C15.039999961853027,-27.385000228881836 14.609999656677246,-26.954999923706055 14.079999923706055,-26.954999923706055 C13.550000190734863,-26.954999923706055 13.119999885559082,-27.385000228881836 13.119999885559082,-27.915000915527344 C13.119999885559082,-27.915000915527344 13.119999885559082,-39.625 13.119999885559082,-39.625 C13.119999885559082,-40.154998779296875 13.550000190734863,-40.584999084472656 14.079999923706055,-40.584999084472656 C14.079999923706055,-40.584999084472656 19.389999389648438,-40.584999084472656 19.389999389648438,-40.584999084472656 C19.920000076293945,-40.584999084472656 20.350000381469727,-40.154998779296875 20.350000381469727,-39.625 C20.350000381469727,-39.625 20.350000381469727,1.034999966621399 20.350000381469727,1.034999966621399 C20.350000381469727,1.565000057220459 19.920000076293945,1.9950000047683716 19.389999389648438,1.9950000047683716 M-4.922999858856201,-3.9010000228881836 C-4.922999858856201,-3.9010000228881836 -8.70300006866455,-3.9010000228881836 -8.70300006866455,-3.9010000228881836 C-9.232999801635742,-3.9010000228881836 -9.663000106811523,-4.330999851226807 -9.663000106811523,-4.861000061035156 C-9.663000106811523,-5.390999794006348 -9.232999801635742,-5.821000099182129 -8.70300006866455,-5.821000099182129 C-8.70300006866455,-5.821000099182129 -6.0229997634887695,-5.821000099182129 -6.0229997634887695,-5.821000099182129 C-6.0229997634887695,-5.821000099182129 -6.663000106811523,-10.270999908447266 -6.663000106811523,-10.270999908447266 C-6.732999801635742,-10.791000366210938 -6.373000144958496,-11.281000137329102 -5.8429999351501465,-11.35099983215332 C-5.322999954223633,-11.420999526977539 -4.8429999351501465,-11.060999870300293 -4.763000011444092,-10.541000366210938 C-4.763000011444092,-10.541000366210938 -3.9730000495910645,-4.991000175476074 -3.9730000495910645,-4.991000175476074 C-3.933000087738037,-4.7210001945495605 -4.013000011444092,-4.440999984741211 -4.192999839782715,-4.230999946594238 C-4.382999897003174,-4.020999908447266 -4.64300012588501,-3.9010000228881836 -4.922999858856201,-3.9010000228881836 M-8.41,13.99 C-8.41,14.52 -8.84,14.95 -9.37,14.95 C-9.37,14.95 -14.23,14.95 -14.23,14.95 C-14.76,14.95 -15.19,14.52 -15.19,13.99 C-15.19,13.99 -15.19,-33 -15.19,-33 C-15.19,-33.53 -14.76,-33.96 -14.23,-33.96 C-14.23,-33.96 -9.37,-33.96 -9.37,-33.96 C-8.84,-33.96 -8.41,-33.53 -8.41,-33 C-8.41,-33 -8.41,13.99 -8.41,13.99z M-13.28,13.04 C-13.28,13.04 -10.33,13.04 -10.33,13.04 C-10.33,13.04 -10.33,-32.04 -10.33,-32.04 C-10.33,-32.04 -13.28,-32.04 -13.28,-32.04 C-13.28,-32.04 -13.28,13.04 -13.28,13.04z M45.01,20.04 C45.01,20.04 -45,20.04 -45,20.04 C-48.28,20.04 -50.95,17.37 -50.95,14.1 C-50.95,14.1 -50.95,-51.56 -50.95,-51.56 C-50.95,-54.83 -48.28,-57.5 -45,-57.5 C-45,-57.5 45.01,-57.5 45.01,-57.5 C48.29,-57.5 50.96,-54.83 50.96,-51.56 C50.96,-51.56 50.96,14.1 50.96,14.1 C50.96,17.37 48.29,20.04 45.01,20.04 C45.01,20.04 45.01,20.04 45.01,20.04z M-45.01,-55.59 C-47.23,-55.59 -49.04,-53.78 -49.04,-51.56 C-49.04,-51.56 -49.04,14.09 -49.04,14.09 C-49.04,16.31 -47.23,18.12 -45.01,18.12 C-45.01,18.12 45,18.12 45,18.12 C47.22,18.12 49.03,16.31 49.03,14.09 C49.03,14.09 49.03,-51.56 49.03,-51.56 C49.03,-53.78 47.22,-55.59 45,-55.59 C45,-55.59 -45.01,-55.59 -45.01,-55.59z M-63.3380012512207,40.439998626708984 C-63.597999572753906,40.439998626708984 -63.8380012512207,40.33000183105469 -64.01799774169922,40.150001525878906 C-64.197998046875,39.970001220703125 -64.2979965209961,39.709999084472656 -64.2979965209961,39.45000076293945 C-64.2979965209961,39.45000076293945 -64.2979965209961,-31.079999923706055 -64.2979965209961,-31.079999923706055 C-64.2979965209961,-31.610000610351562 -63.86800003051758,-32.040000915527344 -63.3380012512207,-32.040000915527344 C-63.3380012512207,-32.040000915527344 -50.87799835205078,-32.040000915527344 -50.87799835205078,-32.040000915527344 C-50.347999572753906,-32.040000915527344 -49.917999267578125,-31.610000610351562 -49.917999267578125,-31.079999923706055 C-49.917999267578125,-30.549999237060547 -50.347999572753906,-30.1200008392334 -50.87799835205078,-30.1200008392334 C-50.87799835205078,-30.1200008392334 -62.37799835205078,-30.1200008392334 -62.37799835205078,-30.1200008392334 C-62.37799835205078,-30.1200008392334 -62.37799835205078,38.5 -62.37799835205078,38.5 C-62.37799835205078,38.5 62.37200164794922,38.41999816894531 62.37200164794922,38.41999816894531 C62.37200164794922,38.41999816894531 62.37200164794922,-30.1200008392334 62.37200164794922,-30.1200008392334 C62.37200164794922,-30.1200008392334 51.02199935913086,-30.1200008392334 51.02199935913086,-30.1200008392334 C50.492000579833984,-30.1200008392334 50.0620002746582,-30.549999237060547 50.0620002746582,-31.079999923706055 C50.0620002746582,-31.610000610351562 50.492000579833984,-32.040000915527344 51.02199935913086,-32.040000915527344 C51.02199935913086,-32.040000915527344 63.332000732421875,-32.040000915527344 63.332000732421875,-32.040000915527344 C63.86199951171875,-32.040000915527344 64.29199981689453,-31.610000610351562 64.29199981689453,-31.079999923706055 C64.29199981689453,-31.079999923706055 64.29199981689453,39.380001068115234 64.29199981689453,39.380001068115234 C64.29199981689453,39.90999984741211 63.86199951171875,40.349998474121094 63.332000732421875,40.349998474121094 C63.332000732421875,40.349998474121094 -63.3380012512207,40.439998626708984 -63.3380012512207,40.439998626708984 C-63.3380012512207,40.439998626708984 -63.3380012512207,40.439998626708984 -63.3380012512207,40.439998626708984z M-72.92400360107422,47.73400115966797 C-73.4540023803711,47.73400115966797 -73.88400268554688,47.30400085449219 -73.88400268554688,46.784000396728516 C-73.88400268554688,46.784000396728516 -73.88400268554688,-33.93600082397461 -73.88400268554688,-33.93600082397461 C-73.88400268554688,-38.16600036621094 -70.39399719238281,-41.61600112915039 -66.09400177001953,-41.61600112915039 C-66.09400177001953,-41.61600112915039 -50.88399887084961,-41.61600112915039 -50.88399887084961,-41.61600112915039 C-50.354000091552734,-41.61600112915039 -49.92399978637695,-41.18600082397461 -49.92399978637695,-40.65599822998047 C-49.92399978637695,-40.125999450683594 -50.354000091552734,-39.69599914550781 -50.88399887084961,-39.69599914550781 C-50.88399887084961,-39.69599914550781 -66.09400177001953,-39.69599914550781 -66.09400177001953,-39.69599914550781 C-69.33399963378906,-39.69599914550781 -71.96399688720703,-37.11600112915039 -71.96399688720703,-33.93600082397461 C-71.96399688720703,-33.93600082397461 -71.96399688720703,46.784000396728516 -71.96399688720703,46.784000396728516 C-71.96399688720703,47.30400085449219 -72.39399719238281,47.73400115966797 -72.92400360107422,47.73400115966797 M72.7699966430664,47.00400161743164 C72.23999786376953,47.00400161743164 71.80999755859375,46.57400131225586 71.80999755859375,46.04399871826172 C71.80999755859375,46.04399871826172 71.80999755859375,-33.93600082397461 71.80999755859375,-33.93600082397461 C71.80999755859375,-37.16600036621094 69.26000213623047,-39.69599914550781 66.01000213623047,-39.69599914550781 C66.01000213623047,-39.69599914550781 51.02000045776367,-39.69599914550781 51.02000045776367,-39.69599914550781 C50.4900016784668,-39.69599914550781 50.060001373291016,-40.125999450683594 50.060001373291016,-40.65599822998047 C50.060001373291016,-41.18600082397461 50.4900016784668,-41.61600112915039 51.02000045776367,-41.61600112915039 C51.02000045776367,-41.61600112915039 66.01000213623047,-41.61600112915039 66.01000213623047,-41.61600112915039 C68.08000183105469,-41.61600112915039 70.0199966430664,-40.82600021362305 71.47000122070312,-39.375999450683594 C72.93000030517578,-37.93600082397461 73.7300033569336,-35.99599838256836 73.7300033569336,-33.93600082397461 C73.7300033569336,-33.93600082397461 73.7300033569336,46.04399871826172 73.7300033569336,46.04399871826172 C73.7300033569336,46.57400131225586 73.30000305175781,47.00400161743164 72.7699966430664,47.00400161743164 M11.866000175476074,52.970001220703125 C11.866000175476074,52.970001220703125 -11.87399959564209,52.970001220703125 -11.87399959564209,52.970001220703125 C-12.404000282287598,52.970001220703125 -12.833999633789062,52.540000915527344 -12.833999633789062,52.0099983215332 C-12.833999633789062,52.0099983215332 -12.833999633789062,47.369998931884766 -12.833999633789062,47.369998931884766 C-12.833999633789062,46.84000015258789 -12.404000282287598,46.40999984741211 -11.87399959564209,46.40999984741211 C-11.343999862670898,46.40999984741211 -10.913999557495117,46.84000015258789 -10.913999557495117,47.369998931884766 C-10.913999557495117,47.369998931884766 -10.913999557495117,51.04999923706055 -10.913999557495117,51.04999923706055 C-10.913999557495117,51.04999923706055 10.906000137329102,51.04999923706055 10.906000137329102,51.04999923706055 C10.906000137329102,51.04999923706055 10.906000137329102,47.369998931884766 10.906000137329102,47.369998931884766 C10.906000137329102,46.84000015258789 11.336000442504883,46.40999984741211 11.866000175476074,46.40999984741211 C12.395999908447266,46.40999984741211 12.826000213623047,46.84000015258789 12.826000213623047,47.369998931884766 C12.826000213623047,47.369998931884766 12.826000213623047,52.0099983215332 12.826000213623047,52.0099983215332 C12.826000213623047,52.540000915527344 12.395999908447266,52.970001220703125 11.866000175476074,52.970001220703125 M78.07,57.51 C78.07,57.51 -78.08,57.51 -78.08,57.51 C-82.07,57.51 -85.31,54.26 -85.31,50.27 C-85.31,50.27 -85.31,47.26 -85.31,47.26 C-85.31,46.73 -84.88,46.3 -84.35,46.3 C-84.35,46.3 84.35,46.3 84.35,46.3 C84.88,46.3 85.31,46.73 85.31,47.26 C85.31,47.26 85.31,50.27 85.31,50.27 C85.31,54.26 82.06,57.51 78.07,57.51 C78.07,57.51 78.07,57.51 78.07,57.51z M-83.39,48.22 C-83.39,48.22 -83.39,50.28 -83.39,50.28 C-83.39,53.2 -81.01,55.59 -78.07,55.59 C-78.07,55.59 78.08,55.59 78.08,55.59 C81.01,55.59 83.39,53.2 83.39,50.28 C83.39,50.28 83.39,48.22 83.39,48.22 C83.39,48.22 -83.39,48.22 -83.39,48.22z"></path><g opacity="1" transform="matrix(1,0,0,1,-23.284000396728516,-50.82400131225586)"></g><g opacity="1" transform="matrix(1,0,0,1,-32.72800064086914,-50.82400131225586)"></g><g opacity="1" transform="matrix(1,0,0,1,-42.172000885009766,-50.82400131225586)"></g><g opacity="1" transform="matrix(1,0,0,1,0,0)"><g opacity="1" transform="matrix(1,0,0,1,-11.800999641418457,-9.5)"></g><g opacity="1" transform="matrix(1,0,0,1,0,-18.731000900268555)"></g><g opacity="1" transform="matrix(1,0,0,1,0,51.90299987792969)"></g></g></g></g><g transform="matrix(0.8608363270759583,0,0,0.8608363270759583,58.91936111450195,427.3311767578125)" opacity="1" style="display: block;"><g opacity="1" transform="matrix(3,0,0,3,0,0)"><path fill="rgb(30,36,58)" fill-opacity="1" d=" M10.005999565124512,9.277000427246094 C9.755999565124512,9.277000427246094 9.515999794006348,9.187000274658203 9.326000213623047,8.996999740600586 C9.326000213623047,8.996999740600586 8.765999794006348,8.437000274658203 8.765999794006348,8.437000274658203 C8.395999908447266,8.067000389099121 8.395999908447266,7.456999778747559 8.765999794006348,7.086999893188477 C9.145999908447266,6.7170000076293945 9.746000289916992,6.7170000076293945 10.12600040435791,7.086999893188477 C10.12600040435791,7.086999893188477 10.685999870300293,7.646999835968018 10.685999870300293,7.646999835968018 C11.055999755859375,8.017000198364258 11.055999755859375,8.626999855041504 10.685999870300293,8.996999740600586 C10.496000289916992,9.187000274658203 10.246000289916992,9.277000427246094 10.005999565124512,9.277000427246094 M-7.665999889373779,-8.368000030517578 C-7.915999889373779,-8.368000030517578 -8.156000137329102,-8.468000411987305 -8.345999717712402,-8.64799976348877 C-8.345999717712402,-8.64799976348877 -9.015999794006348,-9.32800006866455 -9.015999794006348,-9.32800006866455 C-9.38599967956543,-9.697999954223633 -9.38599967956543,-10.307999610900879 -9.015999794006348,-10.678000450134277 C-8.63599967956543,-11.04800033569336 -8.03600025177002,-11.04800033569336 -7.656000137329102,-10.678000450134277 C-7.656000137329102,-10.678000450134277 -6.986000061035156,-10.008000373840332 -6.986000061035156,-10.008000373840332 C-6.616000175476074,-9.637999534606934 -6.616000175476074,-9.027999877929688 -6.986000061035156,-8.64799976348877 C-7.176000118255615,-8.468000411987305 -7.426000118255615,-8.368000030517578 -7.665999889373779,-8.368000030517578 M17.3799991607666,16.656999588012695 C17.139999389648438,16.656999588012695 16.889999389648438,16.55699920654297 16.709999084472656,16.37700080871582 C16.709999084472656,16.37700080871582 12.960000038146973,12.626999855041504 12.960000038146973,12.626999855041504 C12.59000015258789,12.256999969482422 12.59000015258789,11.647000312805176 12.960000038146973,11.277000427246094 C13.329999923706055,10.906999588012695 13.9399995803833,10.906999588012695 14.319999694824219,11.277000427246094 C14.319999694824219,11.277000427246094 18.059999465942383,15.017000198364258 18.059999465942383,15.017000198364258 C18.440000534057617,15.397000312805176 18.440000534057617,15.996999740600586 18.059999465942383,16.37700080871582 C17.8799991607666,16.55699920654297 17.6299991607666,16.656999588012695 17.3799991607666,16.656999588012695 M-11.857000350952148,-12.562000274658203 C-12.107000350952148,-12.562000274658203 -12.347000122070312,-12.652000427246094 -12.536999702453613,-12.842000007629395 C-12.536999702453613,-12.842000007629395 -16.39699935913086,-16.70199966430664 -16.39699935913086,-16.70199966430664 C-16.767000198364258,-17.07200050354004 -16.767000198364258,-17.68199920654297 -16.39699935913086,-18.052000045776367 C-16.017000198364258,-18.422000885009766 -15.416999816894531,-18.422000885009766 -15.036999702453613,-18.052000045776367 C-15.036999702453613,-18.052000045776367 -11.187000274658203,-14.192000389099121 -11.187000274658203,-14.192000389099121 C-10.807000160217285,-13.821999549865723 -10.807000160217285,-13.211999893188477 -11.187000274658203,-12.842000007629395 C-11.366999626159668,-12.652000427246094 -11.616999626159668,-12.562000274658203 -11.857000350952148,-12.562000274658203 M9.369000434875488,19.709999084472656 C5.979000091552734,19.709999084472656 2.5989999771118164,18.420000076293945 0.01899999938905239,15.850000381469727 C0.01899999938905239,15.850000381469727 -15.861000061035156,-0.019999999552965164 -15.861000061035156,-0.019999999552965164 C-18.361000061035156,-2.509999990463257 -19.731000900268555,-5.829999923706055 -19.731000900268555,-9.350000381469727 C-19.731000900268555,-12.880000114440918 -18.361000061035156,-16.200000762939453 -15.861000061035156,-18.690000534057617 C-15.201000213623047,-19.350000381469727 -14.321000099182129,-19.709999084472656 -13.390999794006348,-19.709999084472656 C-12.461000442504883,-19.709999084472656 -11.581000328063965,-19.350000381469727 -10.930999755859375,-18.690000534057617 C-10.930999755859375,-18.690000534057617 -6.390999794006348,-14.15999984741211 -6.390999794006348,-14.15999984741211 C-5.160999774932861,-12.930000305175781 -5.031000137329102,-10.970000267028809 -6.091000080108643,-9.579999923706055 C-6.091000080108643,-9.579999923706055 -7.540999889373779,-7.679999828338623 -7.540999889373779,-7.679999828338623 C-7.761000156402588,-7.389999866485596 -7.770999908447266,-6.989999771118164 -7.560999870300293,-6.679999828338623 C-3.7009999752044678,-1.100000023841858 1.11899995803833,3.7100000381469727 6.749000072479248,7.610000133514404 C7.048999786376953,7.820000171661377 7.459000110626221,7.809999942779541 7.749000072479248,7.590000152587891 C7.749000072479248,7.590000152587891 9.64900016784668,6.139999866485596 9.64900016784668,6.139999866485596 C11.038999557495117,5.090000152587891 13.008999824523926,5.21999979019165 14.23900032043457,6.449999809265137 C14.23900032043457,6.449999809265137 18.708999633789062,10.920000076293945 18.708999633789062,10.920000076293945 C20.069000244140625,12.279999732971191 20.069000244140625,14.489999771118164 18.708999633789062,15.850000381469727 C16.128999710083008,18.420000076293945 12.74899959564209,19.709999084472656 9.369000434875488,19.709999084472656 M-13.394000053405762,-17.795000076293945 C-13.814000129699707,-17.795000076293945 -14.204000473022461,-17.635000228881836 -14.503999710083008,-17.334999084472656 C-16.634000778198242,-15.204999923706055 -17.81399917602539,-12.364999771118164 -17.81399917602539,-9.354999542236328 C-17.81399917602539,-6.335000038146973 -16.634000778198242,-3.505000114440918 -14.503999710083008,-1.375 C-14.503999710083008,-1.375 1.3760000467300415,14.494999885559082 1.3760000467300415,14.494999885559082 C3.5759999752044678,16.69499969482422 6.47599983215332,17.795000076293945 9.366000175476074,17.795000076293945 C12.255999565124512,17.795000076293945 15.156000137329102,16.69499969482422 17.356000900268555,14.494999885559082 C17.965999603271484,13.885000228881836 17.965999603271484,12.885000228881836 17.356000900268555,12.274999618530273 C17.356000900268555,12.274999618530273 12.87600040435791,7.804999828338623 12.87600040435791,7.804999828338623 C12.326000213623047,7.244999885559082 11.435999870300293,7.184999942779541 10.815999984741211,7.664999961853027 C10.815999984741211,7.664999961853027 8.906000137329102,9.114999771118164 8.906000137329102,9.114999771118164 C7.955999851226807,9.845000267028809 6.645999908447266,9.875 5.656000137329102,9.1850004196167 C-0.164000004529953,5.15500020980835 -5.144000053405762,0.1850000023841858 -9.133999824523926,-5.59499979019165 C-9.824000358581543,-6.585000038146973 -9.793999671936035,-7.885000228881836 -9.064000129699707,-8.845000267028809 C-9.064000129699707,-8.845000267028809 -7.613999843597412,-10.744999885559082 -7.613999843597412,-10.744999885559082 C-7.133999824523926,-11.364999771118164 -7.193999767303467,-12.255000114440918 -7.754000186920166,-12.805000305175781 C-7.754000186920166,-12.805000305175781 -12.284000396728516,-17.334999084472656 -12.284000396728516,-17.334999084472656 C-12.574000358581543,-17.635000228881836 -12.973999977111816,-17.795000076293945 -13.394000053405762,-17.795000076293945"></path><g opacity="1" transform="matrix(1,0,0,1,0,0)"></g></g></g><g transform="matrix(1,0,0,1,195.1479949951172,257.4490051269531)" opacity="0.2" style="display: block;"><g opacity="1" transform="matrix(3,0,0,3,0,0)"><path fill="rgb(30,36,58)" fill-opacity="1" d=" M-45.494998931884766,72.77799987792969 C-46.064998626708984,72.77799987792969 -46.525001525878906,72.31800079345703 -46.525001525878906,71.74800109863281 C-46.525001525878906,71.74800109863281 -46.525001525878906,69.97799682617188 -46.525001525878906,69.97799682617188 C-46.525001525878906,69.40799713134766 -46.064998626708984,68.947998046875 -45.494998931884766,68.947998046875 C-44.92499923706055,68.947998046875 -44.46500015258789,69.40799713134766 -44.46500015258789,69.97799682617188 C-44.46500015258789,69.97799682617188 -44.46500015258789,71.74800109863281 -44.46500015258789,71.74800109863281 C-44.46500015258789,72.31800079345703 -44.92499923706055,72.77799987792969 -45.494998931884766,72.77799987792969 M-45.5,65.86 C-46.07,65.86 -46.52,65.39 -46.52,64.82 C-46.52,64.82 -46.52,61.14 -46.52,61.14 C-46.52,60.57 -46.07,60.11 -45.5,60.11 C-44.93,60.11 -44.47,60.57 -44.47,61.14 C-44.47,61.14 -44.47,64.82 -44.47,64.82 C-44.47,65.39 -44.93,65.86 -45.5,65.86 M-45.5,56.87 C-46.07,56.87 -46.52,56.4 -46.52,55.83 C-46.52,55.83 -46.52,52.15 -46.52,52.15 C-46.52,51.58 -46.07,51.12 -45.5,51.12 C-44.93,51.12 -44.47,51.58 -44.47,52.15 C-44.47,52.15 -44.47,55.83 -44.47,55.83 C-44.47,56.4 -44.93,56.87 -45.5,56.87 M-45.5,47.89 C-46.07,47.89 -46.52,47.41 -46.52,46.85 C-46.52,46.85 -46.52,43.16 -46.52,43.16 C-46.52,42.6 -46.07,42.14 -45.5,42.14 C-44.93,42.14 -44.47,42.6 -44.47,43.16 C-44.47,43.16 -44.47,46.85 -44.47,46.85 C-44.47,47.41 -44.93,47.89 -45.5,47.89 M-45.5,38.9 C-46.07,38.9 -46.52,38.43 -46.52,37.86 C-46.52,37.86 -46.52,34.18 -46.52,34.18 C-46.52,33.61 -46.07,33.15 -45.5,33.15 C-44.93,33.15 -44.47,33.61 -44.47,34.18 C-44.47,34.18 -44.47,37.86 -44.47,37.86 C-44.47,38.43 -44.93,38.9 -45.5,38.9 M-45.5,29.91 C-46.07,29.91 -46.52,29.44 -46.52,28.87 C-46.52,28.87 -46.52,25.19 -46.52,25.19 C-46.52,24.62 -46.07,24.16 -45.5,24.16 C-44.93,24.16 -44.47,24.62 -44.47,25.19 C-44.47,25.19 -44.47,28.87 -44.47,28.87 C-44.47,29.44 -44.93,29.91 -45.5,29.91 M-45.5,20.92 C-46.07,20.92 -46.52,20.46 -46.52,19.89 C-46.52,19.89 -46.52,16.21 -46.52,16.21 C-46.52,15.63 -46.07,15.17 -45.5,15.17 C-44.93,15.17 -44.47,15.63 -44.47,16.21 C-44.47,16.21 -44.47,19.89 -44.47,19.89 C-44.47,20.46 -44.93,20.92 -45.5,20.92 M-45.5,11.94 C-46.07,11.94 -46.52,11.47 -46.52,10.9 C-46.52,10.9 -46.52,7.22 -46.52,7.22 C-46.52,6.65 -46.07,6.19 -45.5,6.19 C-44.93,6.19 -44.47,6.65 -44.47,7.22 C-44.47,7.22 -44.47,10.9 -44.47,10.9 C-44.47,11.47 -44.93,11.94 -45.5,11.94 M-45.5,2.95 C-46.07,2.95 -46.52,2.48 -46.52,1.91 C-46.52,1.91 -46.52,-1.77 -46.52,-1.77 C-46.52,-2.34 -46.07,-2.8 -45.5,-2.8 C-44.93,-2.8 -44.47,-2.34 -44.47,-1.77 C-44.47,-1.77 -44.47,1.91 -44.47,1.91 C-44.47,2.48 -44.93,2.95 -45.5,2.95 M-45.5,-6.04 C-46.07,-6.04 -46.52,-6.51 -46.52,-7.08 C-46.52,-7.08 -46.52,-10.76 -46.52,-10.76 C-46.52,-11.33 -46.07,-11.79 -45.5,-11.79 C-44.93,-11.79 -44.47,-11.33 -44.47,-10.76 C-44.47,-10.76 -44.47,-7.08 -44.47,-7.08 C-44.47,-6.51 -44.93,-6.04 -45.5,-6.04 M-45.5,-15.02 C-46.07,-15.02 -46.52,-15.49 -46.52,-16.06 C-46.52,-16.06 -46.52,-19.74 -46.52,-19.74 C-46.52,-20.31 -46.07,-20.77 -45.5,-20.77 C-44.93,-20.77 -44.47,-20.31 -44.47,-19.74 C-44.47,-19.74 -44.47,-16.06 -44.47,-16.06 C-44.47,-15.49 -44.93,-15.02 -45.5,-15.02 M-45.5,-24.01 C-46.07,-24.01 -46.52,-24.48 -46.52,-25.05 C-46.52,-25.05 -46.52,-28.73 -46.52,-28.73 C-46.52,-29.3 -46.07,-29.76 -45.5,-29.76 C-44.93,-29.76 -44.47,-29.3 -44.47,-28.73 C-44.47,-28.73 -44.47,-25.05 -44.47,-25.05 C-44.47,-24.48 -44.93,-24.01 -45.5,-24.01 M-45.5,-33 C-46.07,-33 -46.52,-33.47 -46.52,-34.04 C-46.52,-34.04 -46.52,-37.72 -46.52,-37.72 C-46.52,-38.29 -46.07,-38.75 -45.5,-38.75 C-44.93,-38.75 -44.47,-38.29 -44.47,-37.72 C-44.47,-37.72 -44.47,-34.04 -44.47,-34.04 C-44.47,-33.47 -44.93,-33 -45.5,-33 M-45.5,-41.98 C-46.07,-41.98 -46.52,-42.45 -46.52,-43.02 C-46.52,-43.02 -46.52,-46.7 -46.52,-46.7 C-46.52,-47.27 -46.07,-47.73 -45.5,-47.73 C-44.93,-47.73 -44.47,-47.27 -44.47,-46.7 C-44.47,-46.7 -44.47,-43.02 -44.47,-43.02 C-44.47,-42.45 -44.93,-41.98 -45.5,-41.98 M-45.5,-50.97 C-46.07,-50.97 -46.52,-51.44 -46.52,-52.01 C-46.52,-52.01 -46.52,-55.69 -46.52,-55.69 C-46.52,-56.26 -46.07,-56.72 -45.5,-56.72 C-44.93,-56.72 -44.47,-56.26 -44.47,-55.69 C-44.47,-55.69 -44.47,-52.01 -44.47,-52.01 C-44.47,-51.44 -44.93,-50.97 -45.5,-50.97 M-45.5,-59.96 C-46.07,-59.96 -46.52,-60.43 -46.52,-61 C-46.52,-61 -46.52,-64.68 -46.52,-64.68 C-46.52,-65.25 -46.07,-65.71 -45.5,-65.71 C-44.93,-65.71 -44.47,-65.25 -44.47,-64.68 C-44.47,-64.68 -44.47,-61 -44.47,-61 C-44.47,-60.43 -44.93,-59.96 -45.5,-59.96 M-45.49,-68.8 C-46.06,-68.8 -46.53,-69.26 -46.53,-69.83 C-46.53,-69.83 -46.53,-71.75 -46.53,-71.75 C-46.53,-72.32 -46.06,-72.78 -45.49,-72.78 C-45.49,-72.78 -43.72,-72.78 -43.72,-72.78 C-43.15,-72.78 -42.69,-72.32 -42.69,-71.75 C-42.69,-71.18 -43.15,-70.72 -43.72,-70.72 C-43.72,-70.72 -44.47,-70.72 -44.47,-70.72 C-44.47,-70.72 -44.47,-69.83 -44.47,-69.83 C-44.47,-69.26 -44.92,-68.8 -45.49,-68.8 M38.27,-70.72 C38.27,-70.72 34.43,-70.72 34.43,-70.72 C33.86,-70.72 33.4,-71.18 33.4,-71.75 C33.4,-72.32 33.86,-72.78 34.43,-72.78 C34.43,-72.78 38.27,-72.78 38.27,-72.78 C38.84,-72.78 39.3,-72.32 39.3,-71.75 C39.3,-71.18 38.84,-70.72 38.27,-70.72 M29.13,-70.72 C29.13,-70.72 25.29,-70.72 25.29,-70.72 C24.72,-70.72 24.26,-71.18 24.26,-71.75 C24.26,-72.32 24.72,-72.78 25.29,-72.78 C25.29,-72.78 29.13,-72.78 29.13,-72.78 C29.7,-72.78 30.16,-72.32 30.16,-71.75 C30.16,-71.18 29.7,-70.72 29.13,-70.72 M19.98,-70.72 C19.98,-70.72 16.14,-70.72 16.14,-70.72 C15.57,-70.72 15.12,-71.18 15.12,-71.75 C15.12,-72.32 15.57,-72.78 16.14,-72.78 C16.14,-72.78 19.98,-72.78 19.98,-72.78 C20.55,-72.78 21.02,-72.32 21.02,-71.75 C21.02,-71.18 20.55,-70.72 19.98,-70.72 M10.84,-70.72 C10.84,-70.72 7,-70.72 7,-70.72 C6.43,-70.72 5.97,-71.18 5.97,-71.75 C5.97,-72.32 6.43,-72.78 7,-72.78 C7,-72.78 10.84,-72.78 10.84,-72.78 C11.41,-72.78 11.87,-72.32 11.87,-71.75 C11.87,-71.18 11.41,-70.72 10.84,-70.72 M1.7,-70.72 C1.7,-70.72 -2.14,-70.72 -2.14,-70.72 C-2.71,-70.72 -3.17,-71.18 -3.17,-71.75 C-3.17,-72.32 -2.71,-72.78 -2.14,-72.78 C-2.14,-72.78 1.7,-72.78 1.7,-72.78 C2.27,-72.78 2.73,-72.32 2.73,-71.75 C2.73,-71.18 2.27,-70.72 1.7,-70.72 M-7.44,-70.72 C-7.44,-70.72 -11.28,-70.72 -11.28,-70.72 C-11.85,-70.72 -12.31,-71.18 -12.31,-71.75 C-12.31,-72.32 -11.85,-72.78 -11.28,-72.78 C-11.28,-72.78 -7.44,-72.78 -7.44,-72.78 C-6.87,-72.78 -6.41,-72.32 -6.41,-71.75 C-6.41,-71.18 -6.87,-70.72 -7.44,-70.72 M-16.59,-70.72 C-16.59,-70.72 -20.43,-70.72 -20.43,-70.72 C-21,-70.72 -21.46,-71.18 -21.46,-71.75 C-21.46,-72.32 -21,-72.78 -20.43,-72.78 C-20.43,-72.78 -16.59,-72.78 -16.59,-72.78 C-16.02,-72.78 -15.56,-72.32 -15.56,-71.75 C-15.56,-71.18 -16.02,-70.72 -16.59,-70.72 M-25.73,-70.72 C-25.73,-70.72 -29.57,-70.72 -29.57,-70.72 C-30.14,-70.72 -30.6,-71.18 -30.6,-71.75 C-30.6,-72.32 -30.14,-72.78 -29.57,-72.78 C-29.57,-72.78 -25.73,-72.78 -25.73,-72.78 C-25.16,-72.78 -24.7,-72.32 -24.7,-71.75 C-24.7,-71.18 -25.16,-70.72 -25.73,-70.72 M-34.87,-70.72 C-34.87,-70.72 -38.71,-70.72 -38.71,-70.72 C-39.28,-70.72 -39.74,-71.18 -39.74,-71.75 C-39.74,-72.32 -39.28,-72.78 -38.71,-72.78 C-38.71,-72.78 -34.87,-72.78 -34.87,-72.78 C-34.3,-72.78 -33.84,-72.32 -33.84,-71.75 C-33.84,-71.18 -34.3,-70.72 -34.87,-70.72 M45.49,-68.8 C44.92,-68.8 44.46,-69.26 44.46,-69.83 C44.46,-69.83 44.46,-70.72 44.46,-70.72 C44.46,-70.72 43.57,-70.72 43.57,-70.72 C43,-70.72 42.54,-71.18 42.54,-71.75 C42.54,-72.32 43,-72.78 43.57,-72.78 C43.57,-72.78 45.49,-72.78 45.49,-72.78 C46.06,-72.78 46.52,-72.32 46.52,-71.75 C46.52,-71.75 46.52,-69.83 46.52,-69.83 C46.52,-69.26 46.06,-68.8 45.49,-68.8 M45.49,-58.93 C44.92,-58.93 44.46,-59.39 44.46,-59.96 C44.46,-59.96 44.46,-64.09 44.46,-64.09 C44.46,-64.66 44.92,-65.12 45.49,-65.12 C46.06,-65.12 46.52,-64.66 46.52,-64.09 C46.52,-64.09 46.52,-59.96 46.52,-59.96 C46.52,-59.39 46.06,-58.93 45.49,-58.93 M45.4900016784668,-51.27000045776367 C44.91999816894531,-51.27000045776367 44.459999084472656,-51.72999954223633 44.459999084472656,-52.29999923706055 C44.459999084472656,-52.29999923706055 44.459999084472656,-54.06999969482422 44.459999084472656,-54.06999969482422 C44.459999084472656,-54.63999938964844 44.91999816894531,-55.099998474121094 45.4900016784668,-55.099998474121094 C46.060001373291016,-55.099998474121094 46.52000045776367,-54.63999938964844 46.52000045776367,-54.06999969482422 C46.52000045776367,-54.06999969482422 46.52000045776367,-52.29999923706055 46.52000045776367,-52.29999923706055 C46.52000045776367,-51.72999954223633 46.060001373291016,-51.27000045776367 45.4900016784668,-51.27000045776367"></path><g opacity="1" transform="matrix(1,0,0,1,0,0)"><g opacity="1" transform="matrix(1,0,0,1,0,-3.4619998931884766)"><g opacity="1" transform="matrix(1,0,0,1,-45.49300003051758,3.5360000133514404)"></g><g opacity="1" transform="matrix(1,0,0,1,-0.22100000083446503,-68.28500366210938)"></g></g></g></g></g><g transform="matrix(0.9336499571800232,0,0,0.9336499571800232,624.5877685546875,63.20369338989258)" opacity="0.9873572309643917" style="display: block;"><g opacity="1" transform="matrix(3,0,0,3,0,0)"><path fill="rgb(30,36,58)" fill-opacity="1" d=" M0.004999999888241291,4.638999938964844 C-2.565000057220459,4.638999938964844 -4.644999980926514,2.559000015258789 -4.644999980926514,-0.0010000000474974513 C-4.644999980926514,-0.531000018119812 -4.215000152587891,-0.9610000252723694 -3.684999942779541,-0.9610000252723694 C-3.1549999713897705,-0.9610000252723694 -2.7249999046325684,-0.531000018119812 -2.7249999046325684,-0.0010000000474974513 C-2.7249999046325684,1.4989999532699585 -1.5049999952316284,2.7290000915527344 0.004999999888241291,2.7290000915527344 C1.5049999952316284,2.7290000915527344 2.7249999046325684,1.4989999532699585 2.7249999046325684,-0.0010000000474974513 C2.7249999046325684,-1.5010000467300415 1.5049999952316284,-2.7209999561309814 0.004999999888241291,-2.7209999561309814 C-0.5249999761581421,-2.7209999561309814 -0.9549999833106995,-3.1510000228881836 -0.9549999833106995,-3.680999994277954 C-0.9549999833106995,-4.210999965667725 -0.5249999761581421,-4.640999794006348 0.004999999888241291,-4.640999794006348 C2.565000057220459,-4.640999794006348 4.644999980926514,-2.561000108718872 4.644999980926514,-0.0010000000474974513 C4.644999980926514,2.559000015258789 2.565000057220459,4.638999938964844 0.004999999888241291,4.638999938964844 M0,8.5 C-4.69,8.5 -8.51,4.68 -8.51,-0.01 C-8.51,-4.7 -4.69,-8.51 0,-8.51 C4.7,-8.51 8.51,-4.7 8.51,-0.01 C8.51,4.68 4.7,8.5 0,8.5 M0,-6.59 C-3.63,-6.59 -6.59,-3.63 -6.59,0 C-6.59,3.63 -3.63,6.59 0,6.59 C3.63,6.59 6.59,3.63 6.59,0 C6.59,-3.63 3.63,-6.59 0,-6.59 M-0.003000000026077032,11.470999717712402 C-5.0329999923706055,11.470999717712402 -10.282999992370605,9.550999641418457 -15.192999839782715,5.921000003814697 C-18.882999420166016,3.2009999752044678 -21.062999725341797,0.5109999775886536 -21.152999877929688,0.4009999930858612 C-21.44300079345703,0.03099999949336052 -21.433000564575195,-0.48899999260902405 -21.12299919128418,-0.8389999866485596 C-21.023000717163086,-0.9490000009536743 -18.69300079345703,-3.5290000438690186 -14.942999839782715,-6.138999938964844 C-9.932999610900879,-9.628999710083008 -4.763000011444092,-11.468999862670898 -0.003000000026077032,-11.468999862670898 C5.066999912261963,-11.468999862670898 10.336999893188477,-9.628999710083008 15.22700023651123,-6.138999938964844 C18.89699935913086,-3.5190000534057617 21.05699920654297,-0.9190000295639038 21.14699935913086,-0.8090000152587891 C21.437000274658203,-0.4490000009536743 21.437000274658203,0.07100000232458115 21.12700080871582,0.42100000381469727 C21.03700065612793,0.5410000085830688 18.707000732421875,3.2209999561309814 14.956999778747559,5.931000232696533 C9.946999549865723,9.550999641418457 4.7769999504089355,11.470999717712402 -0.003000000026077032,11.470999717712402 M-19.10700035095215,-0.17399999499320984 C-17.066999435424805,2.0759999752044678 -9.557000160217285,9.555999755859375 0.003000000026077032,9.555999755859375 C9.093000411987305,9.555999755859375 16.972999572753906,2.0260000228881836 19.113000869750977,-0.21400000154972076 C17.072999954223633,-2.384000062942505 9.633000373840332,-9.553999900817871 0.003000000026077032,-9.553999900817871 C-9.07699966430664,-9.553999900817871 -16.94700050354004,-2.3340001106262207 -19.10700035095215,-0.17399999499320984"></path><g opacity="1" transform="matrix(1,0,0,1,0,-0.004999999888241291)"></g><g opacity="1" transform="matrix(1,0,0,1,0,0)"></g></g></g><g transform="matrix(1,0,0,1,469.42999267578125,71.37699890136719)" opacity="0.2" style="display: block;"><g opacity="1" transform="matrix(3,0,0,3,0,0)"><path fill="rgb(30,36,58)" fill-opacity="1" d=" M34.138999938964844,-8.694999694824219 C34.138999938964844,-8.694999694824219 32.21900177001953,-8.694999694824219 32.21900177001953,-8.694999694824219 C31.64900016784668,-8.694999694824219 31.18899917602539,-9.154999732971191 31.18899917602539,-9.725000381469727 C31.18899917602539,-10.295000076293945 31.64900016784668,-10.755000114440918 32.21900177001953,-10.755000114440918 C32.21900177001953,-10.755000114440918 34.138999938964844,-10.755000114440918 34.138999938964844,-10.755000114440918 C34.70899963378906,-10.755000114440918 35.16899871826172,-10.295000076293945 35.16899871826172,-9.725000381469727 C35.16899871826172,-9.154999732971191 34.70899963378906,-8.694999694824219 34.138999938964844,-8.694999694824219 M27.5,-8.69 C27.5,-8.69 23.96,-8.69 23.96,-8.69 C23.39,-8.69 22.93,-9.15 22.93,-9.72 C22.93,-10.29 23.39,-10.75 23.96,-10.75 C23.96,-10.75 27.5,-10.75 27.5,-10.75 C28.07,-10.75 28.53,-10.29 28.53,-9.72 C28.53,-9.15 28.07,-8.69 27.5,-8.69 M18.95,-8.69 C18.95,-8.69 15.41,-8.69 15.41,-8.69 C14.84,-8.69 14.38,-9.15 14.38,-9.72 C14.38,-10.29 14.84,-10.75 15.41,-10.75 C15.41,-10.75 18.95,-10.75 18.95,-10.75 C19.52,-10.75 19.98,-10.29 19.98,-9.72 C19.98,-9.15 19.52,-8.69 18.95,-8.69 M10.39,-8.69 C10.39,-8.69 6.86,-8.69 6.86,-8.69 C6.28,-8.69 5.82,-9.15 5.82,-9.72 C5.82,-10.29 6.28,-10.75 6.86,-10.75 C6.86,-10.75 10.39,-10.75 10.39,-10.75 C10.96,-10.75 11.42,-10.29 11.42,-9.72 C11.42,-9.15 10.96,-8.69 10.39,-8.69 M1.84,-8.69 C1.84,-8.69 -1.7,-8.69 -1.7,-8.69 C-2.27,-8.69 -2.73,-9.15 -2.73,-9.72 C-2.73,-10.29 -2.27,-10.75 -1.7,-10.75 C-1.7,-10.75 1.84,-10.75 1.84,-10.75 C2.41,-10.75 2.87,-10.29 2.87,-9.72 C2.87,-9.15 2.41,-8.69 1.84,-8.69 M-6.71,-8.69 C-6.71,-8.69 -10.25,-8.69 -10.25,-8.69 C-10.82,-8.69 -11.28,-9.15 -11.28,-9.72 C-11.28,-10.29 -10.82,-10.75 -10.25,-10.75 C-10.25,-10.75 -6.71,-10.75 -6.71,-10.75 C-6.14,-10.75 -5.68,-10.29 -5.68,-9.72 C-5.68,-9.15 -6.14,-8.69 -6.71,-8.69 M-15.26,-8.69 C-15.26,-8.69 -18.8,-8.69 -18.8,-8.69 C-19.37,-8.69 -19.83,-9.15 -19.83,-9.72 C-19.83,-10.29 -19.37,-10.75 -18.8,-10.75 C-18.8,-10.75 -15.26,-10.75 -15.26,-10.75 C-14.69,-10.75 -14.23,-10.29 -14.23,-9.72 C-14.23,-9.15 -14.69,-8.69 -15.26,-8.69 M-23.82,-8.69 C-23.82,-8.69 -27.36,-8.69 -27.36,-8.69 C-27.93,-8.69 -28.39,-9.15 -28.39,-9.72 C-28.39,-10.29 -27.93,-10.75 -27.36,-10.75 C-27.36,-10.75 -23.82,-10.75 -23.82,-10.75 C-23.25,-10.75 -22.79,-10.29 -22.79,-9.72 C-22.79,-9.15 -23.25,-8.69 -23.82,-8.69 M-34.14,-6.78 C-34.71,-6.78 -35.17,-7.24 -35.17,-7.8 C-35.17,-7.8 -35.17,-9.73 -35.17,-9.73 C-35.17,-10.3 -34.71,-10.76 -34.14,-10.76 C-34.14,-10.76 -32.37,-10.76 -32.37,-10.76 C-31.8,-10.76 -31.34,-10.3 -31.34,-9.73 C-31.34,-9.15 -31.8,-8.69 -32.37,-8.69 C-32.37,-8.69 -33.11,-8.69 -33.11,-8.69 C-33.11,-8.69 -33.11,-7.8 -33.11,-7.8 C-33.11,-7.24 -33.57,-6.78 -34.14,-6.78 M-35.17,2.07 C-35.17,2.07 -35.17,-2.06 -35.17,-2.06 C-35.17,-2.63 -34.71,-3.09 -34.14,-3.09 C-33.57,-3.09 -33.11,-2.63 -33.11,-2.06 C-33.11,-2.06 -33.11,2.07 -33.11,2.07 C-33.11,2.64 -33.57,3.1 -34.14,3.1 C-34.71,3.1 -35.17,2.64 -35.17,2.07z M-34.14,10.75 C-34.71,10.75 -35.17,10.29 -35.17,9.72 C-35.17,9.72 -35.17,7.95 -35.17,7.95 C-35.17,7.38 -34.71,6.92 -34.14,6.92 C-33.57,6.92 -33.11,7.38 -33.11,7.95 C-33.11,7.95 -33.11,9.72 -33.11,9.72 C-33.11,10.29 -33.57,10.75 -34.14,10.75"></path><g opacity="1" transform="matrix(1,0,0,1,-3.318000078201294,0)"><g opacity="1" transform="matrix(1,0,0,1,3.3919999599456787,-9.722999572753906)"></g></g></g></g><g transform="matrix(0.49720001220703125,0,0,0.49720001220703125,537.732666015625,126.91732025146484)" opacity="0.495802142723036" style="display: block;"><g opacity="1" transform="matrix(3,0,0,3,0,0)"><path fill="rgb(30,36,58)" fill-opacity="1" d=" M0.0020000000949949026,4.2820000648498535 C-0.2280000001192093,4.2820000648498535 -0.4580000042915344,4.211999893188477 -0.6480000019073486,4.061999797821045 C-0.6480000019073486,4.061999797821045 -22.33799934387207,-13.277999877929688 -22.33799934387207,-13.277999877929688 C-22.788000106811523,-13.637999534606934 -22.857999801635742,-14.288000106811523 -22.49799919128418,-14.727999687194824 C-22.148000717163086,-15.178000450134277 -21.49799919128418,-15.248000144958496 -21.04800033569336,-14.887999534606934 C-21.04800033569336,-14.887999534606934 0.0020000000949949026,1.9320000410079956 0.0020000000949949026,1.9320000410079956 C0.0020000000949949026,1.9320000410079956 20.93199920654297,-14.887999534606934 20.93199920654297,-14.887999534606934 C21.381999969482422,-15.248000144958496 22.031999588012695,-15.178000450134277 22.381999969482422,-14.73799991607666 C22.742000579833984,-14.288000106811523 22.672000885009766,-13.637999534606934 22.23200035095215,-13.288000106811523 C22.23200035095215,-13.288000106811523 0.6420000195503235,4.061999797821045 0.6420000195503235,4.061999797821045 C0.4620000123977661,4.211999893188477 0.23199999332427979,4.2820000648498535 0.0020000000949949026,4.2820000648498535 M20.76099967956543,15.470999717712402 C20.76099967956543,15.470999717712402 -20.759000778198242,15.470999717712402 -20.759000778198242,15.470999717712402 C-22.05900001525879,15.470999717712402 -23.108999252319336,14.41100025177002 -23.108999252319336,13.121000289916992 C-23.108999252319336,13.121000289916992 -23.108999252319336,-13.119000434875488 -23.108999252319336,-13.119000434875488 C-23.108999252319336,-14.418999671936035 -22.05900001525879,-15.468999862670898 -20.759000778198242,-15.468999862670898 C-20.759000778198242,-15.468999862670898 20.76099967956543,-15.468999862670898 20.76099967956543,-15.468999862670898 C22.051000595092773,-15.468999862670898 23.111000061035156,-14.418999671936035 23.111000061035156,-13.119000434875488 C23.111000061035156,-13.119000434875488 23.111000061035156,13.121000289916992 23.111000061035156,13.121000289916992 C23.111000061035156,14.41100025177002 22.051000595092773,15.470999717712402 20.76099967956543,15.470999717712402 C20.76099967956543,15.470999717712402 20.76099967956543,15.470999717712402 20.76099967956543,15.470999717712402z M-20.7549991607666,-13.406000137329102 C-20.915000915527344,-13.406000137329102 -21.045000076293945,-13.276000022888184 -21.045000076293945,-13.116000175476074 C-21.045000076293945,-13.116000175476074 -21.045000076293945,13.12399959564209 -21.045000076293945,13.12399959564209 C-21.045000076293945,13.27400016784668 -20.915000915527344,13.404000282287598 -20.7549991607666,13.404000282287598 C-20.7549991607666,13.404000282287598 20.7549991607666,13.404000282287598 20.7549991607666,13.404000282287598 C20.915000915527344,13.404000282287598 21.045000076293945,13.27400016784668 21.045000076293945,13.12399959564209 C21.045000076293945,13.12399959564209 21.045000076293945,-13.116000175476074 21.045000076293945,-13.116000175476074 C21.045000076293945,-13.276000022888184 20.915000915527344,-13.406000137329102 20.7549991607666,-13.406000137329102 C20.7549991607666,-13.406000137329102 -20.7549991607666,-13.406000137329102 -20.7549991607666,-13.406000137329102z"></path><g opacity="1" transform="matrix(1,0,0,1,0,0)"></g></g></g><g transform="matrix(1,0,0,1,517.4299926757812,289.04998779296875)" opacity="0.2" style="display: block;"><g opacity="1" transform="matrix(3,0,0,3,0,0)"><path fill="rgb(30,36,58)" fill-opacity="1" d=" M38.3380012512207,74.47200012207031 C37.768001556396484,74.47200012207031 37.30799865722656,74.01200103759766 37.30799865722656,73.44200134277344 C37.30799865722656,73.44200134277344 37.30799865722656,71.6719970703125 37.30799865722656,71.6719970703125 C37.30799865722656,71.10199737548828 37.768001556396484,70.64199829101562 38.3380012512207,70.64199829101562 C38.90800094604492,70.64199829101562 39.36800003051758,71.10199737548828 39.36800003051758,71.6719970703125 C39.36800003051758,71.6719970703125 39.36800003051758,73.44200134277344 39.36800003051758,73.44200134277344 C39.36800003051758,74.01200103759766 38.90800094604492,74.47200012207031 38.3380012512207,74.47200012207031 M38.34,67.25 C37.77,67.25 37.31,66.79 37.31,66.22 C37.31,66.22 37.31,62.39 37.31,62.39 C37.31,61.82 37.77,61.36 38.34,61.36 C38.91,61.36 39.37,61.82 39.37,62.39 C39.37,62.39 39.37,66.22 39.37,66.22 C39.37,66.79 38.91,67.25 38.34,67.25 M38.34,58.12 C37.77,58.12 37.31,57.66 37.31,57.09 C37.31,57.09 37.31,53.26 37.31,53.26 C37.31,52.69 37.77,52.23 38.34,52.23 C38.91,52.23 39.37,52.69 39.37,53.26 C39.37,53.26 39.37,57.09 39.37,57.09 C39.37,57.66 38.91,58.12 38.34,58.12 M38.34,48.98 C37.77,48.98 37.31,48.52 37.31,47.95 C37.31,47.95 37.31,44.12 37.31,44.12 C37.31,43.55 37.77,43.09 38.34,43.09 C38.91,43.09 39.37,43.55 39.37,44.12 C39.37,44.12 39.37,47.95 39.37,47.95 C39.37,48.52 38.91,48.98 38.34,48.98 M38.34,39.85 C37.77,39.85 37.31,39.39 37.31,38.82 C37.31,38.82 37.31,34.99 37.31,34.99 C37.31,34.42 37.77,33.96 38.34,33.96 C38.91,33.96 39.37,34.42 39.37,34.99 C39.37,34.99 39.37,38.82 39.37,38.82 C39.37,39.39 38.91,39.85 38.34,39.85 M38.34,30.72 C37.77,30.72 37.31,30.26 37.31,29.68 C37.31,29.68 37.31,25.85 37.31,25.85 C37.31,25.28 37.77,24.82 38.34,24.82 C38.91,24.82 39.37,25.28 39.37,25.85 C39.37,25.85 39.37,29.68 39.37,29.68 C39.37,30.26 38.91,30.72 38.34,30.72 M38.34,21.58 C37.77,21.58 37.31,21.12 37.31,20.55 C37.31,20.55 37.31,16.72 37.31,16.72 C37.31,16.15 37.77,15.69 38.34,15.69 C38.91,15.69 39.37,16.15 39.37,16.72 C39.37,16.72 39.37,20.55 39.37,20.55 C39.37,21.12 38.91,21.58 38.34,21.58 M38.34,12.45 C37.77,12.45 37.31,11.99 37.31,11.42 C37.31,11.42 37.31,7.59 37.31,7.59 C37.31,7.02 37.77,6.56 38.34,6.56 C38.91,6.56 39.37,7.02 39.37,7.59 C39.37,7.59 39.37,11.42 39.37,11.42 C39.37,11.99 38.91,12.45 38.34,12.45 M38.34,3.31 C37.77,3.31 37.31,2.85 37.31,2.28 C37.31,2.28 37.31,-1.55 37.31,-1.55 C37.31,-2.12 37.77,-2.58 38.34,-2.58 C38.91,-2.58 39.37,-2.12 39.37,-1.55 C39.37,-1.55 39.37,2.28 39.37,2.28 C39.37,2.85 38.91,3.31 38.34,3.31 M38.34,-5.82 C37.77,-5.82 37.31,-6.28 37.31,-6.85 C37.31,-6.85 37.31,-10.68 37.31,-10.68 C37.31,-11.25 37.77,-11.71 38.34,-11.71 C38.91,-11.71 39.37,-11.25 39.37,-10.68 C39.37,-10.68 39.37,-6.85 39.37,-6.85 C39.37,-6.28 38.91,-5.82 38.34,-5.82 M38.34,-14.96 C37.77,-14.96 37.31,-15.42 37.31,-15.99 C37.31,-15.99 37.31,-19.82 37.31,-19.82 C37.31,-20.39 37.77,-20.85 38.34,-20.85 C38.91,-20.85 39.37,-20.39 39.37,-19.82 C39.37,-19.82 39.37,-15.99 39.37,-15.99 C39.37,-15.42 38.91,-14.96 38.34,-14.96 M38.34,-24.09 C37.77,-24.09 37.31,-24.55 37.31,-25.12 C37.31,-25.12 37.31,-28.95 37.31,-28.95 C37.31,-29.52 37.77,-29.98 38.34,-29.98 C38.91,-29.98 39.37,-29.52 39.37,-28.95 C39.37,-28.95 39.37,-25.12 39.37,-25.12 C39.37,-24.55 38.91,-24.09 38.34,-24.09 M38.34,-33.22 C37.77,-33.22 37.31,-33.68 37.31,-34.25 C37.31,-34.25 37.31,-38.08 37.31,-38.08 C37.31,-38.65 37.77,-39.11 38.34,-39.11 C38.91,-39.11 39.37,-38.65 39.37,-38.08 C39.37,-38.08 39.37,-34.25 39.37,-34.25 C39.37,-33.68 38.91,-33.22 38.34,-33.22 M38.34,-42.36 C37.77,-42.36 37.31,-42.82 37.31,-43.39 C37.31,-43.39 37.31,-47.22 37.31,-47.22 C37.31,-47.79 37.77,-48.25 38.34,-48.25 C38.91,-48.25 39.37,-47.79 39.37,-47.22 C39.37,-47.22 39.37,-43.39 39.37,-43.39 C39.37,-42.82 38.91,-42.36 38.34,-42.36 M38.34,-51.49 C37.77,-51.49 37.31,-51.95 37.31,-52.52 C37.31,-52.52 37.31,-53.41 37.31,-53.41 C37.31,-53.41 36.42,-53.41 36.42,-53.41 C35.85,-53.41 35.39,-53.87 35.39,-54.44 C35.39,-55.01 35.85,-55.47 36.42,-55.47 C36.42,-55.47 38.34,-55.47 38.34,-55.47 C38.91,-55.47 39.37,-55.01 39.37,-54.44 C39.37,-54.44 39.37,-52.52 39.37,-52.52 C39.37,-51.95 38.91,-51.49 38.34,-51.49 M31.85,-53.41 C31.85,-53.41 28.46,-53.41 28.46,-53.41 C27.89,-53.41 27.43,-53.87 27.43,-54.44 C27.43,-55.01 27.89,-55.47 28.46,-55.47 C28.46,-55.47 31.85,-55.47 31.85,-55.47 C32.42,-55.47 32.89,-55.01 32.89,-54.44 C32.89,-53.87 32.42,-53.41 31.85,-53.41 M23.74,-53.41 C23.74,-53.41 20.35,-53.41 20.35,-53.41 C19.78,-53.41 19.32,-53.87 19.32,-54.44 C19.32,-55.01 19.78,-55.47 20.35,-55.47 C20.35,-55.47 23.74,-55.47 23.74,-55.47 C24.31,-55.47 24.78,-55.01 24.78,-54.44 C24.78,-53.87 24.31,-53.41 23.74,-53.41 M15.63,-53.41 C15.63,-53.41 12.24,-53.41 12.24,-53.41 C11.67,-53.41 11.21,-53.87 11.21,-54.44 C11.21,-55.01 11.67,-55.47 12.24,-55.47 C12.24,-55.47 15.63,-55.47 15.63,-55.47 C16.2,-55.47 16.67,-55.01 16.67,-54.44 C16.67,-53.87 16.2,-53.41 15.63,-53.41 M7.52,-53.41 C7.52,-53.41 5.75,-53.41 5.75,-53.41 C5.18,-53.41 4.72,-53.87 4.72,-54.44 C4.72,-54.44 4.72,-56.21 4.72,-56.21 C4.72,-56.78 5.18,-57.24 5.75,-57.24 C6.32,-57.24 6.78,-56.78 6.78,-56.21 C6.78,-56.21 6.78,-55.47 6.78,-55.47 C6.78,-55.47 7.52,-55.47 7.52,-55.47 C8.09,-55.47 8.55,-55.01 8.55,-54.44 C8.55,-53.87 8.09,-53.41 7.52,-53.41 M5.75,-60.92 C5.18,-60.92 4.72,-61.38 4.72,-61.95 C4.72,-61.95 4.72,-65.93 4.72,-65.93 C4.72,-66.5 5.18,-66.96 5.75,-66.96 C6.32,-66.96 6.78,-66.5 6.78,-65.93 C6.78,-65.93 6.78,-61.95 6.78,-61.95 C6.78,-61.38 6.32,-60.92 5.75,-60.92 M5.75,-70.49 C5.18,-70.49 4.72,-70.95 4.72,-71.52 C4.72,-71.52 4.72,-72.41 4.72,-72.41 C4.72,-72.41 3.83,-72.41 3.83,-72.41 C3.26,-72.41 2.8,-72.87 2.8,-73.44 C2.8,-74.01 3.26,-74.47 3.83,-74.47 C3.83,-74.47 5.75,-74.47 5.75,-74.47 C6.32,-74.47 6.78,-74.01 6.78,-73.44 C6.78,-73.44 6.78,-71.52 6.78,-71.52 C6.78,-70.95 6.32,-70.49 5.75,-70.49 M-1.18,-72.41 C-1.18,-72.41 -4.87,-72.41 -4.87,-72.41 C-5.44,-72.41 -5.9,-72.87 -5.9,-73.44 C-5.9,-74.01 -5.44,-74.47 -4.87,-74.47 C-4.87,-74.47 -1.18,-74.47 -1.18,-74.47 C-0.61,-74.47 -0.15,-74.01 -0.15,-73.44 C-0.15,-72.87 -0.61,-72.41 -1.18,-72.41 M-10.03,-72.41 C-10.03,-72.41 -13.72,-72.41 -13.72,-72.41 C-14.29,-72.41 -14.75,-72.87 -14.75,-73.44 C-14.75,-74.01 -14.29,-74.47 -13.72,-74.47 C-13.72,-74.47 -10.03,-74.47 -10.03,-74.47 C-9.46,-74.47 -9,-74.01 -9,-73.44 C-9,-72.87 -9.46,-72.41 -10.03,-72.41 M-18.87,-72.41 C-18.87,-72.41 -22.56,-72.41 -22.56,-72.41 C-23.13,-72.41 -23.59,-72.87 -23.59,-73.44 C-23.59,-74.01 -23.13,-74.47 -22.56,-74.47 C-22.56,-74.47 -18.87,-74.47 -18.87,-74.47 C-18.3,-74.47 -17.84,-74.01 -17.84,-73.44 C-17.84,-72.87 -18.3,-72.41 -18.87,-72.41 M-27.72,-72.41 C-27.72,-72.41 -31.41,-72.41 -31.41,-72.41 C-31.98,-72.41 -32.44,-72.87 -32.44,-73.44 C-32.44,-74.01 -31.98,-74.47 -31.41,-74.47 C-31.41,-74.47 -27.72,-74.47 -27.72,-74.47 C-27.15,-74.47 -26.69,-74.01 -26.69,-73.44 C-26.69,-72.87 -27.15,-72.41 -27.72,-72.41 M-38.34,-70.49 C-38.91,-70.49 -39.37,-70.95 -39.37,-71.52 C-39.37,-71.52 -39.37,-73.44 -39.37,-73.44 C-39.37,-74.01 -38.91,-74.47 -38.34,-74.47 C-38.34,-74.47 -36.57,-74.47 -36.57,-74.47 C-36,-74.47 -35.54,-74.01 -35.54,-73.44 C-35.54,-72.87 -36,-72.41 -36.57,-72.41 C-36.57,-72.41 -37.31,-72.41 -37.31,-72.41 C-37.31,-72.41 -37.31,-71.52 -37.31,-71.52 C-37.31,-70.95 -37.77,-70.49 -38.34,-70.49 M-38.34,-61.8 C-38.91,-61.8 -39.37,-62.26 -39.37,-62.83 C-39.37,-62.83 -39.37,-64.6 -39.37,-64.6 C-39.37,-65.17 -38.91,-65.63 -38.34,-65.63 C-37.77,-65.63 -37.31,-65.17 -37.31,-64.6 C-37.31,-64.6 -37.31,-62.83 -37.31,-62.83 C-37.31,-62.26 -37.77,-61.8 -38.34,-61.8"></path><g opacity="1" transform="matrix(1,0,0,1,0,-3.6089999675750732)"><g opacity="1" transform="matrix(1,0,0,1,38.340999603271484,13.112000465393066)"></g><g opacity="1" transform="matrix(1,0,0,1,0,-59.37200164794922)"><g opacity="1" transform="matrix(1,0,0,1,-3.24399995803833,-0.9580000042915344)"><g opacity="1" transform="matrix(1,0,0,1,25.290000915527344,9.501999855041504)"></g><g opacity="1" transform="matrix(1,0,0,1,-12.166000366210938,0)"><g opacity="1" transform="matrix(1,0,0,1,-0.8849999904632568,-9.501999855041504)"></g></g></g></g></g></g></g></g></svg>