<svg xmlns="http://www.w3.org/2000/svg" xmlns:xlink="http://www.w3.org/1999/xlink" viewBox="0 0 705 630" width="705" height="630" preserveAspectRatio="xMidYMid meet" style="width: 100%; height: 100%; transform: translate3d(0px, 0px, 0px); content-visibility: visible;"><defs><clipPath id="__lottie_element_492"><rect width="705" height="630" x="0" y="0"></rect></clipPath></defs><g clip-path="url(#__lottie_element_492)"><g transform="matrix(0.7596414089202881,0,0,0.7596414089202881,349.3340148925781,275.7820129394531)" opacity="1" style="display: block;"><g opacity="1" transform="matrix(3,0,0,3,0,0)"><path fill="#1E243A" fill-opacity="1" d=" M-9.189000129699707,-26.599000930786133 C-9.559000015258789,-26.599000930786133 -9.918999671936035,-26.819000244140625 -10.069000244140625,-27.179000854492188 C-10.279000282287598,-27.66900062561035 -10.048999786376953,-28.229000091552734 -9.569000244140625,-28.43899917602539 C-9.569000244140625,-28.43899917602539 13.651000022888184,-38.32899856567383 13.651000022888184,-38.32899856567383 C14.140999794006348,-38.53900146484375 14.701000213623047,-38.308998107910156 14.91100025177002,-37.82899856567383 C15.121000289916992,-37.3390007019043 14.890999794006348,-36.77899932861328 14.41100025177002,-36.569000244140625 C14.41100025177002,-36.569000244140625 -8.819000244140625,-26.679000854492188 -8.819000244140625,-26.679000854492188 C-8.939000129699707,-26.628999710083008 -9.069000244140625,-26.599000930786133 -9.189000129699707,-26.599000930786133 M30.371000289916992,-47.79899978637695 C30.371000289916992,-47.79899978637695 -13.569000244140625,-47.79899978637695 -13.569000244140625,-47.79899978637695 C-14.098999977111816,-47.79899978637695 -14.529000282287598,-48.229000091552734 -14.529000282287598,-48.75899887084961 C-14.529000282287598,-49.28900146484375 -14.098999977111816,-49.71900177001953 -13.569000244140625,-49.71900177001953 C-13.569000244140625,-49.71900177001953 30.371000289916992,-49.71900177001953 30.371000289916992,-49.71900177001953 C30.900999069213867,-49.71900177001953 31.33099937438965,-49.28900146484375 31.33099937438965,-48.75899887084961 C31.33099937438965,-48.229000091552734 30.900999069213867,-47.79899978637695 30.371000289916992,-47.79899978637695 M7.2210001945495605,-51.92399978637695 C7.2210001945495605,-51.92399978637695 -13.569000244140625,-51.92399978637695 -13.569000244140625,-51.92399978637695 C-14.098999977111816,-51.92399978637695 -14.529000282287598,-52.354000091552734 -14.529000282287598,-52.88399887084961 C-14.529000282287598,-53.41400146484375 -14.098999977111816,-53.84400177001953 -13.569000244140625,-53.84400177001953 C-13.569000244140625,-53.84400177001953 7.2210001945495605,-53.84400177001953 7.2210001945495605,-53.84400177001953 C7.750999927520752,-53.84400177001953 8.180999755859375,-53.41400146484375 8.180999755859375,-52.88399887084961 C8.180999755859375,-52.354000091552734 7.750999927520752,-51.92399978637695 7.2210001945495605,-51.92399978637695 M-16.739999771118164,-44.6349983215332 C-17.270000457763672,-44.6349983215332 -17.700000762939453,-45.064998626708984 -17.700000762939453,-45.595001220703125 C-17.700000762939453,-45.595001220703125 -17.700000762939453,-55.904998779296875 -17.700000762939453,-55.904998779296875 C-17.700000762939453,-56.435001373291016 -17.270000457763672,-56.8650016784668 -16.739999771118164,-56.8650016784668 C-16.209999084472656,-56.8650016784668 -15.779999732971191,-56.435001373291016 -15.779999732971191,-55.904998779296875 C-15.779999732971191,-55.904998779296875 -15.779999732971191,-45.595001220703125 -15.779999732971191,-45.595001220703125 C-15.779999732971191,-45.064998626708984 -16.209999084472656,-44.6349983215332 -16.739999771118164,-44.6349983215332 M-23.28,-47.77 C-24.97,-47.77 -26.34,-49.14 -26.34,-50.82 C-26.34,-52.51 -24.97,-53.88 -23.28,-53.88 C-21.59,-53.88 -20.22,-52.51 -20.22,-50.82 C-20.22,-49.14 -21.59,-47.77 -23.28,-47.77 M-23.29,-51.97 C-23.92,-51.97 -24.43,-51.46 -24.43,-50.83 C-24.43,-50.2 -23.92,-49.69 -23.29,-49.69 C-22.66,-49.69 -22.14,-50.2 -22.14,-50.83 C-22.14,-51.46 -22.66,-51.97 -23.29,-51.97 M-32.73,-47.77 C-34.42,-47.77 -35.79,-49.14 -35.79,-50.82 C-35.79,-52.51 -34.42,-53.88 -32.73,-53.88 C-31.04,-53.88 -29.67,-52.51 -29.67,-50.82 C-29.67,-49.14 -31.04,-47.77 -32.73,-47.77 M-32.73,-51.97 C-33.36,-51.97 -33.87,-51.46 -33.87,-50.83 C-33.87,-50.2 -33.36,-49.69 -32.73,-49.69 C-32.1,-49.69 -31.58,-50.2 -31.58,-50.83 C-31.58,-51.46 -32.1,-51.97 -32.73,-51.97 M-42.17,-47.77 C-43.86,-47.77 -45.23,-49.14 -45.23,-50.82 C-45.23,-52.51 -43.86,-53.88 -42.17,-53.88 C-40.48,-53.88 -39.11,-52.51 -39.11,-50.82 C-39.11,-49.14 -40.48,-47.77 -42.17,-47.77 M-42.18,-51.97 C-42.81,-51.97 -43.32,-51.46 -43.32,-50.83 C-43.32,-50.2 -42.81,-49.69 -42.18,-49.69 C-41.55,-49.69 -41.03,-50.2 -41.03,-50.83 C-41.03,-51.46 -41.55,-51.97 -42.18,-51.97 M49.24399948120117,-43.96900177001953 C49.24399948120117,-43.96900177001953 -49.25600051879883,-43.96900177001953 -49.25600051879883,-43.96900177001953 C-49.7859992980957,-43.96900177001953 -50.215999603271484,-44.39899826049805 -50.215999603271484,-44.92900085449219 C-50.215999603271484,-45.45899963378906 -49.7859992980957,-45.888999938964844 -49.25600051879883,-45.888999938964844 C-49.25600051879883,-45.888999938964844 49.24399948120117,-45.888999938964844 49.24399948120117,-45.888999938964844 C49.77399826049805,-45.888999938964844 50.20399856567383,-45.45899963378906 50.20399856567383,-44.92900085449219 C50.20399856567383,-44.39899826049805 49.77399826049805,-43.96900177001953 49.24399948120117,-43.96900177001953 M14.031000137329102,-1.2580000162124634 C13.901000022888184,-1.2580000162124634 13.781000137329102,-1.2879999876022339 13.651000022888184,-1.3380000591278076 C13.651000022888184,-1.3380000591278076 -9.569000244140625,-11.227999687194824 -9.569000244140625,-11.227999687194824 C-10.048999786376953,-11.437999725341797 -10.279000282287598,-11.998000144958496 -10.069000244140625,-12.48799991607666 C-9.869000434875488,-12.968000411987305 -9.298999786376953,-13.197999954223633 -8.819000244140625,-12.98799991607666 C-8.819000244140625,-12.98799991607666 14.41100025177002,-3.0980000495910645 14.41100025177002,-3.0980000495910645 C14.890999794006348,-2.888000011444092 15.121000289916992,-2.328000068664551 14.91100025177002,-1.8380000591278076 C14.76099967956543,-1.4780000448226929 14.401000022888184,-1.2580000162124634 14.031000137329102,-1.2580000162124634 M-14.894000053405762,-12.003000259399414 C-14.894000053405762,-12.003000259399414 -22.3439998626709,-12.003000259399414 -22.3439998626709,-12.003000259399414 C-22.874000549316406,-12.003000259399414 -23.304000854492188,-12.432999610900879 -23.304000854492188,-12.963000297546387 C-23.304000854492188,-12.963000297546387 -23.304000854492188,-26.51300048828125 -23.304000854492188,-26.51300048828125 C-23.304000854492188,-27.042999267578125 -22.874000549316406,-27.472999572753906 -22.3439998626709,-27.472999572753906 C-22.3439998626709,-27.472999572753906 -14.894000053405762,-27.472999572753906 -14.894000053405762,-27.472999572753906 C-14.37399959564209,-27.472999572753906 -13.944000244140625,-27.042999267578125 -13.944000244140625,-26.51300048828125 C-13.944000244140625,-25.982999801635742 -14.37399959564209,-25.55299949645996 -14.894000053405762,-25.55299949645996 C-14.894000053405762,-25.55299949645996 -21.384000778198242,-25.55299949645996 -21.384000778198242,-25.55299949645996 C-21.384000778198242,-25.55299949645996 -21.384000778198242,-13.92300033569336 -21.384000778198242,-13.92300033569336 C-21.384000778198242,-13.92300033569336 -14.894000053405762,-13.92300033569336 -14.894000053405762,-13.92300033569336 C-14.37399959564209,-13.92300033569336 -13.944000244140625,-13.493000030517578 -13.944000244140625,-12.963000297546387 C-13.944000244140625,-12.432999610900879 -14.37399959564209,-12.003000259399414 -14.894000053405762,-12.003000259399414 M19.389999389648438,1.9950000047683716 C19.389999389648438,1.9950000047683716 14.079999923706055,1.9950000047683716 14.079999923706055,1.9950000047683716 C13.550000190734863,1.9950000047683716 13.119999885559082,1.565000057220459 13.119999885559082,1.034999966621399 C13.119999885559082,1.034999966621399 13.119999885559082,-17.604999542236328 13.119999885559082,-17.604999542236328 C13.119999885559082,-18.135000228881836 13.550000190734863,-18.55500030517578 14.079999923706055,-18.55500030517578 C14.609999656677246,-18.55500030517578 15.039999961853027,-18.135000228881836 15.039999961853027,-17.604999542236328 C15.039999961853027,-17.604999542236328 15.039999961853027,0.07500000298023224 15.039999961853027,0.07500000298023224 C15.039999961853027,0.07500000298023224 18.43000030517578,0.07500000298023224 18.43000030517578,0.07500000298023224 C18.43000030517578,0.07500000298023224 18.43000030517578,-38.665000915527344 18.43000030517578,-38.665000915527344 C18.43000030517578,-38.665000915527344 15.039999961853027,-38.665000915527344 15.039999961853027,-38.665000915527344 C15.039999961853027,-38.665000915527344 15.039999961853027,-27.915000915527344 15.039999961853027,-27.915000915527344 C15.039999961853027,-27.385000228881836 14.609999656677246,-26.954999923706055 14.079999923706055,-26.954999923706055 C13.550000190734863,-26.954999923706055 13.119999885559082,-27.385000228881836 13.119999885559082,-27.915000915527344 C13.119999885559082,-27.915000915527344 13.119999885559082,-39.625 13.119999885559082,-39.625 C13.119999885559082,-40.154998779296875 13.550000190734863,-40.584999084472656 14.079999923706055,-40.584999084472656 C14.079999923706055,-40.584999084472656 19.389999389648438,-40.584999084472656 19.389999389648438,-40.584999084472656 C19.920000076293945,-40.584999084472656 20.350000381469727,-40.154998779296875 20.350000381469727,-39.625 C20.350000381469727,-39.625 20.350000381469727,1.034999966621399 20.350000381469727,1.034999966621399 C20.350000381469727,1.565000057220459 19.920000076293945,1.9950000047683716 19.389999389648438,1.9950000047683716 M-4.922999858856201,-3.9010000228881836 C-4.922999858856201,-3.9010000228881836 -8.70300006866455,-3.9010000228881836 -8.70300006866455,-3.9010000228881836 C-9.232999801635742,-3.9010000228881836 -9.663000106811523,-4.330999851226807 -9.663000106811523,-4.861000061035156 C-9.663000106811523,-5.390999794006348 -9.232999801635742,-5.821000099182129 -8.70300006866455,-5.821000099182129 C-8.70300006866455,-5.821000099182129 -6.0229997634887695,-5.821000099182129 -6.0229997634887695,-5.821000099182129 C-6.0229997634887695,-5.821000099182129 -6.663000106811523,-10.270999908447266 -6.663000106811523,-10.270999908447266 C-6.732999801635742,-10.791000366210938 -6.373000144958496,-11.281000137329102 -5.8429999351501465,-11.35099983215332 C-5.322999954223633,-11.420999526977539 -4.8429999351501465,-11.060999870300293 -4.763000011444092,-10.541000366210938 C-4.763000011444092,-10.541000366210938 -3.9730000495910645,-4.991000175476074 -3.9730000495910645,-4.991000175476074 C-3.933000087738037,-4.7210001945495605 -4.013000011444092,-4.440999984741211 -4.192999839782715,-4.230999946594238 C-4.382999897003174,-4.020999908447266 -4.64300012588501,-3.9010000228881836 -4.922999858856201,-3.9010000228881836 M-8.41,13.99 C-8.41,14.52 -8.84,14.95 -9.37,14.95 C-9.37,14.95 -14.23,14.95 -14.23,14.95 C-14.76,14.95 -15.19,14.52 -15.19,13.99 C-15.19,13.99 -15.19,-33 -15.19,-33 C-15.19,-33.53 -14.76,-33.96 -14.23,-33.96 C-14.23,-33.96 -9.37,-33.96 -9.37,-33.96 C-8.84,-33.96 -8.41,-33.53 -8.41,-33 C-8.41,-33 -8.41,13.99 -8.41,13.99z M-13.28,13.04 C-13.28,13.04 -10.33,13.04 -10.33,13.04 C-10.33,13.04 -10.33,-32.04 -10.33,-32.04 C-10.33,-32.04 -13.28,-32.04 -13.28,-32.04 C-13.28,-32.04 -13.28,13.04 -13.28,13.04z M45.01,20.04 C45.01,20.04 -45,20.04 -45,20.04 C-48.28,20.04 -50.95,17.37 -50.95,14.1 C-50.95,14.1 -50.95,-51.56 -50.95,-51.56 C-50.95,-54.83 -48.28,-57.5 -45,-57.5 C-45,-57.5 45.01,-57.5 45.01,-57.5 C48.29,-57.5 50.96,-54.83 50.96,-51.56 C50.96,-51.56 50.96,14.1 50.96,14.1 C50.96,17.37 48.29,20.04 45.01,20.04 C45.01,20.04 45.01,20.04 45.01,20.04z M-45.01,-55.59 C-47.23,-55.59 -49.04,-53.78 -49.04,-51.56 C-49.04,-51.56 -49.04,14.09 -49.04,14.09 C-49.04,16.31 -47.23,18.12 -45.01,18.12 C-45.01,18.12 45,18.12 45,18.12 C47.22,18.12 49.03,16.31 49.03,14.09 C49.03,14.09 49.03,-51.56 49.03,-51.56 C49.03,-53.78 47.22,-55.59 45,-55.59 C45,-55.59 -45.01,-55.59 -45.01,-55.59z M-63.3380012512207,40.439998626708984 C-63.597999572753906,40.439998626708984 -63.8380012512207,40.33000183105469 -64.01799774169922,40.150001525878906 C-64.197998046875,39.970001220703125 -64.2979965209961,39.709999084472656 -64.2979965209961,39.45000076293945 C-64.2979965209961,39.45000076293945 -64.2979965209961,-31.079999923706055 -64.2979965209961,-31.079999923706055 C-64.2979965209961,-31.610000610351562 -63.86800003051758,-32.040000915527344 -63.3380012512207,-32.040000915527344 C-63.3380012512207,-32.040000915527344 -50.87799835205078,-32.040000915527344 -50.87799835205078,-32.040000915527344 C-50.347999572753906,-32.040000915527344 -49.917999267578125,-31.610000610351562 -49.917999267578125,-31.079999923706055 C-49.917999267578125,-30.549999237060547 -50.347999572753906,-30.1200008392334 -50.87799835205078,-30.1200008392334 C-50.87799835205078,-30.1200008392334 -62.37799835205078,-30.1200008392334 -62.37799835205078,-30.1200008392334 C-62.37799835205078,-30.1200008392334 -62.37799835205078,38.5 -62.37799835205078,38.5 C-62.37799835205078,38.5 62.37200164794922,38.41999816894531 62.37200164794922,38.41999816894531 C62.37200164794922,38.41999816894531 62.37200164794922,-30.1200008392334 62.37200164794922,-30.1200008392334 C62.37200164794922,-30.1200008392334 51.02199935913086,-30.1200008392334 51.02199935913086,-30.1200008392334 C50.492000579833984,-30.1200008392334 50.0620002746582,-30.549999237060547 50.0620002746582,-31.079999923706055 C50.0620002746582,-31.610000610351562 50.492000579833984,-32.040000915527344 51.02199935913086,-32.040000915527344 C51.02199935913086,-32.040000915527344 63.332000732421875,-32.040000915527344 63.332000732421875,-32.040000915527344 C63.86199951171875,-32.040000915527344 64.29199981689453,-31.610000610351562 64.29199981689453,-31.079999923706055 C64.29199981689453,-31.079999923706055 64.29199981689453,39.380001068115234 64.29199981689453,39.380001068115234 C64.29199981689453,39.90999984741211 63.86199951171875,40.349998474121094 63.332000732421875,40.349998474121094 C63.332000732421875,40.349998474121094 -63.3380012512207,40.439998626708984 -63.3380012512207,40.439998626708984 C-63.3380012512207,40.439998626708984 -63.3380012512207,40.439998626708984 -63.3380012512207,40.439998626708984z M-72.92400360107422,47.73400115966797 C-73.4540023803711,47.73400115966797 -73.88400268554688,47.30400085449219 -73.88400268554688,46.784000396728516 C-73.88400268554688,46.784000396728516 -73.88400268554688,-33.93600082397461 -73.88400268554688,-33.93600082397461 C-73.88400268554688,-38.16600036621094 -70.39399719238281,-41.61600112915039 -66.09400177001953,-41.61600112915039 C-66.09400177001953,-41.61600112915039 -50.88399887084961,-41.61600112915039 -50.88399887084961,-41.61600112915039 C-50.354000091552734,-41.61600112915039 -49.92399978637695,-41.18600082397461 -49.92399978637695,-40.65599822998047 C-49.92399978637695,-40.125999450683594 -50.354000091552734,-39.69599914550781 -50.88399887084961,-39.69599914550781 C-50.88399887084961,-39.69599914550781 -66.09400177001953,-39.69599914550781 -66.09400177001953,-39.69599914550781 C-69.33399963378906,-39.69599914550781 -71.96399688720703,-37.11600112915039 -71.96399688720703,-33.93600082397461 C-71.96399688720703,-33.93600082397461 -71.96399688720703,46.784000396728516 -71.96399688720703,46.784000396728516 C-71.96399688720703,47.30400085449219 -72.39399719238281,47.73400115966797 -72.92400360107422,47.73400115966797 M72.7699966430664,47.00400161743164 C72.23999786376953,47.00400161743164 71.80999755859375,46.57400131225586 71.80999755859375,46.04399871826172 C71.80999755859375,46.04399871826172 71.80999755859375,-33.93600082397461 71.80999755859375,-33.93600082397461 C71.80999755859375,-37.16600036621094 69.26000213623047,-39.69599914550781 66.01000213623047,-39.69599914550781 C66.01000213623047,-39.69599914550781 51.02000045776367,-39.69599914550781 51.02000045776367,-39.69599914550781 C50.4900016784668,-39.69599914550781 50.060001373291016,-40.125999450683594 50.060001373291016,-40.65599822998047 C50.060001373291016,-41.18600082397461 50.4900016784668,-41.61600112915039 51.02000045776367,-41.61600112915039 C51.02000045776367,-41.61600112915039 66.01000213623047,-41.61600112915039 66.01000213623047,-41.61600112915039 C68.08000183105469,-41.61600112915039 70.0199966430664,-40.82600021362305 71.47000122070312,-39.375999450683594 C72.93000030517578,-37.93600082397461 73.7300033569336,-35.99599838256836 73.7300033569336,-33.93600082397461 C73.7300033569336,-33.93600082397461 73.7300033569336,46.04399871826172 73.7300033569336,46.04399871826172 C73.7300033569336,46.57400131225586 73.30000305175781,47.00400161743164 72.7699966430664,47.00400161743164 M11.866000175476074,52.970001220703125 C11.866000175476074,52.970001220703125 -11.87399959564209,52.970001220703125 -11.87399959564209,52.970001220703125 C-12.404000282287598,52.970001220703125 -12.833999633789062,52.540000915527344 -12.833999633789062,52.0099983215332 C-12.833999633789062,52.0099983215332 -12.833999633789062,47.369998931884766 -12.833999633789062,47.369998931884766 C-12.833999633789062,46.84000015258789 -12.404000282287598,46.40999984741211 -11.87399959564209,46.40999984741211 C-11.343999862670898,46.40999984741211 -10.913999557495117,46.84000015258789 -10.913999557495117,47.369998931884766 C-10.913999557495117,47.369998931884766 -10.913999557495117,51.04999923706055 -10.913999557495117,51.04999923706055 C-10.913999557495117,51.04999923706055 10.906000137329102,51.04999923706055 10.906000137329102,51.04999923706055 C10.906000137329102,51.04999923706055 10.906000137329102,47.369998931884766 10.906000137329102,47.369998931884766 C10.906000137329102,46.84000015258789 11.336000442504883,46.40999984741211 11.866000175476074,46.40999984741211 C12.395999908447266,46.40999984741211 12.826000213623047,46.84000015258789 12.826000213623047,47.369998931884766 C12.826000213623047,47.369998931884766 12.826000213623047,52.0099983215332 12.826000213623047,52.0099983215332 C12.826000213623047,52.540000915527344 12.395999908447266,52.970001220703125 11.866000175476074,52.970001220703125 M78.07,57.51 C78.07,57.51 -78.08,57.51 -78.08,57.51 C-82.07,57.51 -85.31,54.26 -85.31,50.27 C-85.31,50.27 -85.31,47.26 -85.31,47.26 C-85.31,46.73 -84.88,46.3 -84.35,46.3 C-84.35,46.3 84.35,46.3 84.35,46.3 C84.88,46.3 85.31,46.73 85.31,47.26 C85.31,47.26 85.31,50.27 85.31,50.27 C85.31,54.26 82.06,57.51 78.07,57.51 C78.07,57.51 78.07,57.51 78.07,57.51z M-83.39,48.22 C-83.39,48.22 -83.39,50.28 -83.39,50.28 C-83.39,53.2 -81.01,55.59 -78.07,55.59 C-78.07,55.59 78.08,55.59 78.08,55.59 C81.01,55.59 83.39,53.2 83.39,50.28 C83.39,50.28 83.39,48.22 83.39,48.22 C83.39,48.22 -83.39,48.22 -83.39,48.22z"></path><g opacity="1" transform="matrix(1,0,0,1,-23.284000396728516,-50.82400131225586)"></g><g opacity="1" transform="matrix(1,0,0,1,-32.72800064086914,-50.82400131225586)"></g><g opacity="1" transform="matrix(1,0,0,1,-42.172000885009766,-50.82400131225586)"></g><g opacity="1" transform="matrix(1,0,0,1,0,0)"><g opacity="1" transform="matrix(1,0,0,1,-11.800999641418457,-9.5)"></g><g opacity="1" transform="matrix(1,0,0,1,0,-18.731000900268555)"></g><g opacity="1" transform="matrix(1,0,0,1,0,51.90299987792969)"></g></g></g></g><g style="display: none;"><g><path></path><g></g></g></g><g style="display: none;"><g><path></path><g><g><g></g><g></g></g></g></g></g><g style="display: none;"><g><path></path><g></g><g></g></g></g><g style="display: none;"><g><path></path><g><g></g></g></g></g><g style="display: none;"><g><path></path><g></g></g></g><g style="display: none;"><g><path></path><g><g></g><g><g><g></g><g><g></g></g></g></g></g></g></g></g></svg>