<svg xmlns="http://www.w3.org/2000/svg" xmlns:xlink="http://www.w3.org/1999/xlink" viewBox="0 0 705 600" width="705" height="600" preserveAspectRatio="xMidYMid meet" style="width: 100%; height: 100%; transform: translate3d(0px, 0px, 0px); content-visibility: visible;"><defs><clipPath id="__lottie_element_561"><rect width="705" height="600" x="0" y="0"></rect></clipPath></defs><g clip-path="url(#__lottie_element_561)"><g transform="matrix(0.7203871011734009,0,0,0.7203871011734009,340.87701416015625,306.010986328125)" opacity="1" style="display: block;"><g opacity="1" transform="matrix(3,0,0,3,0,0)"><path fill="#1E243A" fill-opacity="1" d=" M11.48,-31.36 C8.7,-31.36 6.45,-33.61 6.45,-36.38 C6.45,-39.14 8.7,-41.39 11.48,-41.39 C14.25,-41.39 16.5,-39.14 16.5,-36.38 C16.5,-33.61 14.25,-31.36 11.48,-31.36 M11.47,-39.42 C9.79,-39.42 8.42,-38.05 8.42,-36.37 C8.42,-34.69 9.79,-33.33 11.47,-33.33 C13.16,-33.33 14.53,-34.69 14.53,-36.37 C14.53,-38.05 13.16,-39.42 11.47,-39.42 M11.227999687194824,-14.45300006866455 C10.968000411987305,-14.45300006866455 10.718000411987305,-14.553000450134277 10.527999877929688,-14.743000030517578 C10.137999534606934,-15.123000144958496 10.137999534606934,-15.753000259399414 10.527999877929688,-16.132999420166016 C10.527999877929688,-16.132999420166016 20.857999801635742,-26.44300079345703 20.857999801635742,-26.44300079345703 C21.04800033569336,-26.632999420166016 21.29800033569336,-26.732999801635742 21.558000564575195,-26.732999801635742 C21.81800079345703,-26.732999801635742 22.06800079345703,-26.632999420166016 22.257999420166016,-26.44300079345703 C22.257999420166016,-26.44300079345703 32.40800094604492,-16.322999954223633 32.40800094604492,-16.322999954223633 C32.78799819946289,-15.932999610900879 32.78799819946289,-15.312999725341797 32.40800094604492,-14.92300033569336 C32.018001556396484,-14.543000221252441 31.398000717163086,-14.543000221252441 31.007999420166016,-14.92300033569336 C31.007999420166016,-14.92300033569336 21.558000564575195,-24.35300064086914 21.558000564575195,-24.35300064086914 C21.558000564575195,-24.35300064086914 11.918000221252441,-14.743000030517578 11.918000221252441,-14.743000030517578 C11.727999687194824,-14.553000450134277 11.477999687194824,-14.45300006866455 11.227999687194824,-14.45300006866455 M20.56399917602539,-5.13100004196167 C20.31399917602539,-5.13100004196167 20.054000854492188,-5.230999946594238 19.86400032043457,-5.421000003814697 C19.86400032043457,-5.421000003814697 -9.005999565124512,-34.22100067138672 -9.005999565124512,-34.22100067138672 C-9.005999565124512,-34.22100067138672 -31.895999908447266,-11.390999794006348 -31.895999908447266,-11.390999794006348 C-32.2760009765625,-11.00100040435791 -32.90599822998047,-11.00100040435791 -33.2859992980957,-11.390999794006348 C-33.67599868774414,-11.770999908447266 -33.67599868774414,-12.390999794006348 -33.2859992980957,-12.781000137329102 C-33.2859992980957,-12.781000137329102 -9.696000099182129,-36.31100082397461 -9.696000099182129,-36.31100082397461 C-9.315999984741211,-36.70100021362305 -8.685999870300293,-36.70100021362305 -8.305999755859375,-36.31100082397461 C-8.305999755859375,-36.31100082397461 21.263999938964844,-6.810999870300293 21.263999938964844,-6.810999870300293 C21.643999099731445,-6.431000232696533 21.643999099731445,-5.810999870300293 21.263999938964844,-5.421000003814697 C21.06399917602539,-5.230999946594238 20.81399917602539,-5.13100004196167 20.56399917602539,-5.13100004196167 M32.7,-4.14 C32.7,-4.14 -32.55,-4.14 -32.55,-4.14 C-33.1,-4.14 -33.54,-4.58 -33.54,-5.12 C-33.54,-5.12 -33.54,-47.12 -33.54,-47.12 C-33.54,-47.66 -33.1,-48.1 -32.55,-48.1 C-32.55,-48.1 32.7,-48.1 32.7,-48.1 C33.24,-48.1 33.68,-47.66 33.68,-47.12 C33.68,-47.12 33.68,-5.12 33.68,-5.12 C33.68,-4.58 33.24,-4.14 32.7,-4.14 C32.7,-4.14 32.7,-4.14 32.7,-4.14z M-31.56,-6.11 C-31.56,-6.11 31.72,-6.11 31.72,-6.11 C31.72,-6.11 31.72,-46.13 31.72,-46.13 C31.72,-46.13 -31.56,-46.13 -31.56,-46.13 C-31.56,-46.13 -31.56,-6.11 -31.56,-6.11z M32.47600173950195,48.08100128173828 C32.47600173950195,48.08100128173828 -32.784000396728516,48.08100128173828 -32.784000396728516,48.08100128173828 C-33.33399963378906,48.08100128173828 -33.77399826049805,47.64099884033203 -33.77399826049805,47.090999603271484 C-33.77399826049805,46.55099868774414 -33.33399963378906,46.111000061035156 -32.784000396728516,46.111000061035156 C-32.784000396728516,46.111000061035156 32.47600173950195,46.111000061035156 32.47600173950195,46.111000061035156 C33.01599884033203,46.111000061035156 33.465999603271484,46.55099868774414 33.465999603271484,47.090999603271484 C33.465999603271484,47.64099884033203 33.01599884033203,48.08100128173828 32.47600173950195,48.08100128173828 M32.47600173950195,39.44900131225586 C32.47600173950195,39.44900131225586 -32.784000396728516,39.44900131225586 -32.784000396728516,39.44900131225586 C-33.33399963378906,39.44900131225586 -33.77399826049805,39.00899887084961 -33.77399826049805,38.45899963378906 C-33.77399826049805,37.91899871826172 -33.33399963378906,37.479000091552734 -32.784000396728516,37.479000091552734 C-32.784000396728516,37.479000091552734 32.47600173950195,37.479000091552734 32.47600173950195,37.479000091552734 C33.01599884033203,37.479000091552734 33.465999603271484,37.91899871826172 33.465999603271484,38.45899963378906 C33.465999603271484,39.00899887084961 33.01599884033203,39.44900131225586 32.47600173950195,39.44900131225586 M32.47600173950195,30.666000366210938 C32.47600173950195,30.666000366210938 -32.784000396728516,30.666000366210938 -32.784000396728516,30.666000366210938 C-33.33399963378906,30.666000366210938 -33.77399826049805,30.22599983215332 -33.77399826049805,29.676000595092773 C-33.77399826049805,29.13599967956543 -33.33399963378906,28.695999145507812 -32.784000396728516,28.695999145507812 C-32.784000396728516,28.695999145507812 32.47600173950195,28.695999145507812 32.47600173950195,28.695999145507812 C33.01599884033203,28.695999145507812 33.465999603271484,29.13599967956543 33.465999603271484,29.676000595092773 C33.465999603271484,30.22599983215332 33.01599884033203,30.666000366210938 32.47600173950195,30.666000366210938 M32.7,21.36 C32.7,21.36 7.28,21.36 7.28,21.36 C6.73,21.36 6.29,20.92 6.29,20.38 C6.29,20.38 6.29,4.22 6.29,4.22 C6.29,3.68 6.73,3.24 7.28,3.24 C7.28,3.24 32.7,3.24 32.7,3.24 C33.25,3.24 33.69,3.68 33.69,4.22 C33.69,4.22 33.69,20.38 33.69,20.38 C33.69,20.92 33.25,21.36 32.7,21.36 C32.7,21.36 32.7,21.36 32.7,21.36z M8.26,19.39 C8.26,19.39 31.71,19.39 31.71,19.39 C31.71,19.39 31.71,5.21 31.71,5.21 C31.71,5.21 8.26,5.21 8.26,5.21 C8.26,5.21 8.26,19.39 8.26,19.39z M-7.13,21.36 C-7.13,21.36 -32.55,21.36 -32.55,21.36 C-33.1,21.36 -33.54,20.92 -33.54,20.38 C-33.54,20.38 -33.54,4.22 -33.54,4.22 C-33.54,3.68 -33.1,3.24 -32.55,3.24 C-32.55,3.24 -7.13,3.24 -7.13,3.24 C-6.58,3.24 -6.14,3.68 -6.14,4.22 C-6.14,4.22 -6.14,20.38 -6.14,20.38 C-6.14,20.92 -6.58,21.36 -7.13,21.36 C-7.13,21.36 -7.13,21.36 -7.13,21.36z M-31.56,19.39 C-31.56,19.39 -8.11,19.39 -8.11,19.39 C-8.11,19.39 -8.11,5.21 -8.11,5.21 C-8.11,5.21 -31.56,5.21 -31.56,5.21 C-31.56,5.21 -31.56,19.39 -31.56,19.39z M0.12,70.69 C-2.41,70.69 -4.47,68.63 -4.47,66.11 C-4.47,63.58 -2.41,61.53 0.12,61.53 C2.65,61.53 4.71,63.58 4.71,66.11 C4.71,68.63 2.65,70.69 0.12,70.69 M0.12,63.5 C-1.33,63.5 -2.5,64.67 -2.5,66.11 C-2.5,67.55 -1.33,68.72 0.12,68.72 C1.56,68.72 2.73,67.55 2.73,66.11 C2.73,64.67 1.56,63.5 0.12,63.5 M7.285999774932861,-65.03800201416016 C7.285999774932861,-65.03800201416016 -7.133999824523926,-65.03800201416016 -7.133999824523926,-65.03800201416016 C-7.684000015258789,-65.03800201416016 -8.12399959564209,-65.47799682617188 -8.12399959564209,-66.02799987792969 C-8.12399959564209,-66.56800079345703 -7.684000015258789,-67.00800323486328 -7.133999824523926,-67.00800323486328 C-7.133999824523926,-67.00800323486328 7.285999774932861,-67.00800323486328 7.285999774932861,-67.00800323486328 C7.826000213623047,-67.00800323486328 8.265999794006348,-66.56800079345703 8.265999794006348,-66.02799987792969 C8.265999794006348,-65.47799682617188 7.826000213623047,-65.03800201416016 7.285999774932861,-65.03800201416016 M39.457000732421875,56.862998962402344 C39.457000732421875,56.862998962402344 -40.37300109863281,56.862998962402344 -40.37300109863281,56.862998962402344 C-40.92300033569336,56.862998962402344 -41.362998962402344,56.42300033569336 -41.362998962402344,55.87300109863281 C-41.362998962402344,55.33300018310547 -40.92300033569336,54.893001556396484 -40.37300109863281,54.893001556396484 C-40.37300109863281,54.893001556396484 39.457000732421875,54.893001556396484 39.457000732421875,54.893001556396484 C40.00699996948242,54.893001556396484 40.446998596191406,55.33300018310547 40.446998596191406,55.87300109863281 C40.446998596191406,56.42300033569336 40.00699996948242,56.862998962402344 39.457000732421875,56.862998962402344 M40.367000579833984,-54.891998291015625 C40.367000579833984,-54.891998291015625 -40.37300109863281,-54.891998291015625 -40.37300109863281,-54.891998291015625 C-40.92300033569336,-54.891998291015625 -41.362998962402344,-55.332000732421875 -41.362998962402344,-55.88199996948242 C-41.362998962402344,-56.422000885009766 -40.92300033569336,-56.86199951171875 -40.37300109863281,-56.86199951171875 C-40.37300109863281,-56.86199951171875 40.367000579833984,-56.86199951171875 40.367000579833984,-56.86199951171875 C40.91699981689453,-56.86199951171875 41.356998443603516,-56.422000885009766 41.356998443603516,-55.88199996948242 C41.356998443603516,-55.332000732421875 40.91699981689453,-54.891998291015625 40.367000579833984,-54.891998291015625 M35.89,77.27 C35.89,77.27 -35.83,77.27 -35.83,77.27 C-38.85,77.27 -41.31,74.81 -41.31,71.8 C-41.31,71.8 -41.31,-71.79 -41.31,-71.79 C-41.31,-74.81 -38.85,-77.26 -35.83,-77.26 C-35.83,-77.26 35.89,-77.26 35.89,-77.26 C38.91,-77.26 41.37,-74.81 41.37,-71.79 C41.37,-71.79 41.37,71.8 41.37,71.8 C41.37,74.81 38.91,77.27 35.89,77.27 C35.89,77.27 35.89,77.27 35.89,77.27z M-35.83,-75.29 C-37.77,-75.29 -39.34,-73.72 -39.34,-71.79 C-39.34,-71.79 -39.34,71.8 -39.34,71.8 C-39.34,73.73 -37.77,75.3 -35.83,75.3 C-35.83,75.3 35.88,75.3 35.88,75.3 C37.82,75.3 39.39,73.73 39.39,71.8 C39.39,71.8 39.39,-71.79 39.39,-71.79 C39.39,-73.72 37.82,-75.29 35.88,-75.29 C35.88,-75.29 -35.83,-75.29 -35.83,-75.29z"></path><g opacity="1" transform="matrix(1,0,0,1,11.472999572753906,-36.37799835205078)"></g><g opacity="1" transform="matrix(1,0,0,1,0.07400000095367432,-26.121000289916992)"></g><g opacity="1" transform="matrix(1,0,0,1,19.985000610351562,12.298999786376953)"></g><g opacity="1" transform="matrix(1,0,0,1,-19.836999893188477,12.298999786376953)"></g><g opacity="1" transform="matrix(1,0,0,1,0.11699999868869781,66.11199951171875)"></g><g opacity="1" transform="matrix(1,0,0,1,0.024000000208616257,0)"></g></g></g><g style="display: none;"><g><path></path><g><g></g><g></g></g></g></g><g style="display: none;"><g><path></path><g></g></g></g><g style="display: none;"><g><path></path><g></g><g></g></g></g><g style="display: none;"><g><path></path><g></g><g></g></g></g><g style="display: none;"><g><path></path><g><g></g><g></g></g></g></g><g style="display: none;"><g><path></path><g></g><g></g><g></g><g></g></g></g><g style="display: none;"><g><path></path><g></g><g></g></g></g><g style="display: none;"><g><path></path><g></g></g></g></g></svg>