<svg xmlns="http://www.w3.org/2000/svg" xmlns:xlink="http://www.w3.org/1999/xlink" viewBox="0 0 705 600" width="705" height="600" preserveAspectRatio="xMidYMid meet" style="width: 100%; height: 100%; transform: translate3d(0px, 0px, 0px); content-visibility: visible;"><defs><clipPath id="__lottie_element_544"><rect width="705" height="600" x="0" y="0"></rect></clipPath></defs><g clip-path="url(#__lottie_element_544)"><g transform="matrix(0.6636399626731873,0,0,0.6636399626731873,314.8070068359375,419.0260009765625)" opacity="1" style="display: block;"><g opacity="1" transform="matrix(3,0,0,3,0,0)"><path fill="#1E243A" fill-opacity="1" d=" M44.297000885009766,9.109999656677246 C43.71699905395508,9.109999656677246 43.24700164794922,8.640000343322754 43.24700164794922,8.0600004196167 C43.24700164794922,8.0600004196167 43.24700164794922,-8.210000038146973 43.24700164794922,-8.210000038146973 C43.24700164794922,-8.789999961853027 43.71699905395508,-9.260000228881836 44.297000885009766,-9.260000228881836 C44.87699890136719,-9.260000228881836 45.33700180053711,-8.789999961853027 45.33700180053711,-8.210000038146973 C45.33700180053711,-8.210000038146973 45.33700180053711,8.0600004196167 45.33700180053711,8.0600004196167 C45.33700180053711,8.640000343322754 44.87699890136719,9.109999656677246 44.297000885009766,9.109999656677246 M33.224998474121094,9.11299991607666 C32.64500045776367,9.11299991607666 32.17499923706055,8.642999649047852 32.17499923706055,8.062999725341797 C32.17499923706055,8.062999725341797 32.17499923706055,-1.937000036239624 32.17499923706055,-1.937000036239624 C32.17499923706055,-2.5169999599456787 32.64500045776367,-2.986999988555908 33.224998474121094,-2.986999988555908 C33.80500030517578,-2.986999988555908 34.26499938964844,-2.5169999599456787 34.26499938964844,-1.937000036239624 C34.26499938964844,-1.937000036239624 34.26499938964844,8.062999725341797 34.26499938964844,8.062999725341797 C34.26499938964844,8.642999649047852 33.80500030517578,9.11299991607666 33.224998474121094,9.11299991607666 M22.152999877929688,9.114999771118164 C21.572999954223633,9.114999771118164 21.10300064086914,8.645000457763672 21.10300064086914,8.0649995803833 C21.10300064086914,8.0649995803833 21.10300064086914,0.004999999888241291 21.10300064086914,0.004999999888241291 C21.10300064086914,-0.574999988079071 21.572999954223633,-1.0449999570846558 22.152999877929688,-1.0449999570846558 C22.732999801635742,-1.0449999570846558 23.19300079345703,-0.574999988079071 23.19300079345703,0.004999999888241291 C23.19300079345703,0.004999999888241291 23.19300079345703,8.0649995803833 23.19300079345703,8.0649995803833 C23.19300079345703,8.645000457763672 22.732999801635742,9.114999771118164 22.152999877929688,9.114999771118164 M-33.20600128173828,9.105999946594238 C-33.7859992980957,9.105999946594238 -34.25600051879883,8.645999908447266 -34.25600051879883,8.065999984741211 C-34.25600051879883,8.065999984741211 -34.25600051879883,-7.164000034332275 -34.25600051879883,-7.164000034332275 C-34.25600051879883,-7.74399995803833 -33.7859992980957,-8.21399974822998 -33.20600128173828,-8.21399974822998 C-32.625999450683594,-8.21399974822998 -32.16600036621094,-7.74399995803833 -32.16600036621094,-7.164000034332275 C-32.16600036621094,-7.164000034332275 -32.16600036621094,8.065999984741211 -32.16600036621094,8.065999984741211 C-32.16600036621094,8.645999908447266 -32.625999450683594,9.105999946594238 -33.20600128173828,9.105999946594238 M-44.27799987792969,9.11400032043457 C-44.858001708984375,9.11400032043457 -45.327999114990234,8.644000053405762 -45.327999114990234,8.064000129699707 C-45.327999114990234,8.064000129699707 -45.327999114990234,-4.47599983215332 -45.327999114990234,-4.47599983215332 C-45.327999114990234,-5.056000232696533 -44.858001708984375,-5.526000022888184 -44.27799987792969,-5.526000022888184 C-43.698001861572266,-5.526000022888184 -43.237998962402344,-5.056000232696533 -43.237998962402344,-4.47599983215332 C-43.237998962402344,-4.47599983215332 -43.237998962402344,8.064000129699707 -43.237998962402344,8.064000129699707 C-43.237998962402344,8.644000053405762 -43.698001861572266,9.11400032043457 -44.27799987792969,9.11400032043457 M-14.960000038146973,-23.599000930786133 C-14.960000038146973,-23.599000930786133 -55.349998474121094,-23.599000930786133 -55.349998474121094,-23.599000930786133 C-55.93000030517578,-23.599000930786133 -56.400001525878906,-24.069000244140625 -56.400001525878906,-24.638999938964844 C-56.400001525878906,-25.2189998626709 -55.93000030517578,-25.68899917602539 -55.349998474121094,-25.68899917602539 C-55.349998474121094,-25.68899917602539 -14.960000038146973,-25.68899917602539 -14.960000038146973,-25.68899917602539 C-14.380000114440918,-25.68899917602539 -13.90999984741211,-25.2189998626709 -13.90999984741211,-24.638999938964844 C-13.90999984741211,-24.069000244140625 -14.380000114440918,-23.599000930786133 -14.960000038146973,-23.599000930786133 M-14.960000038146973,-32.26100158691406 C-14.960000038146973,-32.26100158691406 -55.349998474121094,-32.26100158691406 -55.349998474121094,-32.26100158691406 C-55.93000030517578,-32.26100158691406 -56.400001525878906,-32.73099899291992 -56.400001525878906,-33.30099868774414 C-56.400001525878906,-33.88100051879883 -55.93000030517578,-34.35100173950195 -55.349998474121094,-34.35100173950195 C-55.349998474121094,-34.35100173950195 -14.960000038146973,-34.35100173950195 -14.960000038146973,-34.35100173950195 C-14.380000114440918,-34.35100173950195 -13.90999984741211,-33.88100051879883 -13.90999984741211,-33.30099868774414 C-13.90999984741211,-32.73099899291992 -14.380000114440918,-32.26100158691406 -14.960000038146973,-32.26100158691406 M-14.960000038146973,-41.073001861572266 C-14.960000038146973,-41.073001861572266 -55.349998474121094,-41.073001861572266 -55.349998474121094,-41.073001861572266 C-55.93000030517578,-41.073001861572266 -56.400001525878906,-41.542999267578125 -56.400001525878906,-42.112998962402344 C-56.400001525878906,-42.69300079345703 -55.93000030517578,-43.16299819946289 -55.349998474121094,-43.16299819946289 C-55.349998474121094,-43.16299819946289 -14.960000038146973,-43.16299819946289 -14.960000038146973,-43.16299819946289 C-14.380000114440918,-43.16299819946289 -13.90999984741211,-42.69300079345703 -13.90999984741211,-42.112998962402344 C-13.90999984741211,-41.542999267578125 -14.380000114440918,-41.073001861572266 -14.960000038146973,-41.073001861572266 M11.081000328063965,9.114999771118164 C10.50100040435791,9.114999771118164 10.031000137329102,8.645000457763672 10.031000137329102,8.0649995803833 C10.031000137329102,8.0649995803833 10.031000137329102,-4.625 10.031000137329102,-4.625 C10.031000137329102,-5.204999923706055 10.50100040435791,-5.675000190734863 11.081000328063965,-5.675000190734863 C11.66100025177002,-5.675000190734863 12.121000289916992,-5.204999923706055 12.121000289916992,-4.625 C12.121000289916992,-4.625 12.121000289916992,8.0649995803833 12.121000289916992,8.0649995803833 C12.121000289916992,8.645000457763672 11.66100025177002,9.114999771118164 11.081000328063965,9.114999771118164 M0.008999999612569809,9.11299991607666 C-0.5709999799728394,9.11299991607666 -1.0410000085830688,8.642999649047852 -1.0410000085830688,8.062999725341797 C-1.0410000085830688,8.062999725341797 -1.0410000085830688,-1.937000036239624 -1.0410000085830688,-1.937000036239624 C-1.0410000085830688,-2.5169999599456787 -0.5709999799728394,-2.986999988555908 0.008999999612569809,-2.986999988555908 C0.5889999866485596,-2.986999988555908 1.0490000247955322,-2.5169999599456787 1.0490000247955322,-1.937000036239624 C1.0490000247955322,-1.937000036239624 1.0490000247955322,8.062999725341797 1.0490000247955322,8.062999725341797 C1.0490000247955322,8.642999649047852 0.5889999866485596,9.11299991607666 0.008999999612569809,9.11299991607666 M-11.062999725341797,8.807000160217285 C-11.642999649047852,8.807000160217285 -12.11299991607666,8.347000122070312 -12.11299991607666,7.767000198364258 C-12.11299991607666,7.767000198364258 -12.11299991607666,4.0370001792907715 -12.11299991607666,4.0370001792907715 C-12.11299991607666,3.4570000171661377 -11.642999649047852,2.986999988555908 -11.062999725341797,2.986999988555908 C-10.482999801635742,2.986999988555908 -10.02299976348877,3.4570000171661377 -10.02299976348877,4.0370001792907715 C-10.02299976348877,4.0370001792907715 -10.02299976348877,7.767000198364258 -10.02299976348877,7.767000198364258 C-10.02299976348877,8.347000122070312 -10.482999801635742,8.807000160217285 -11.062999725341797,8.807000160217285 M-22.134000778198242,9.11400032043457 C-22.714000701904297,9.11400032043457 -23.18400001525879,8.644000053405762 -23.18400001525879,8.064000129699707 C-23.18400001525879,8.064000129699707 -23.18400001525879,-9.105999946594238 -23.18400001525879,-9.105999946594238 C-23.18400001525879,-9.685999870300293 -22.714000701904297,-10.156000137329102 -22.134000778198242,-10.156000137329102 C-21.554000854492188,-10.156000137329102 -21.0939998626709,-9.685999870300293 -21.0939998626709,-9.105999946594238 C-21.0939998626709,-9.105999946594238 -21.0939998626709,8.064000129699707 -21.0939998626709,8.064000129699707 C-21.0939998626709,8.644000053405762 -21.554000854492188,9.11400032043457 -22.134000778198242,9.11400032043457 M55.36,9.08 C55.36,9.08 -55.36,9.08 -55.36,9.08 C-55.94,9.08 -56.41,8.61 -56.41,8.03 C-56.41,8.03 -56.41,-13.92 -56.41,-13.92 C-56.41,-14.5 -55.94,-14.97 -55.36,-14.97 C-55.36,-14.97 55.36,-14.97 55.36,-14.97 C55.93,-14.97 56.4,-14.5 56.4,-13.92 C56.4,-13.92 56.4,8.03 56.4,8.03 C56.4,8.61 55.93,9.08 55.36,9.08 C55.36,9.08 55.36,9.08 55.36,9.08z M-54.31,6.98 C-54.31,6.98 54.31,6.98 54.31,6.98 C54.31,6.98 54.31,-12.88 54.31,-12.88 C54.31,-12.88 -54.31,-12.88 -54.31,-12.88 C-54.31,-12.88 -54.31,6.98 -54.31,6.98z M59.51,32.86 C59.51,32.86 -59.55,32.86 -59.55,32.86 C-62.94,32.86 -65.69,30.11 -65.69,26.73 C-65.69,26.73 -65.69,-51.97 -65.69,-51.97 C-65.69,-55.35 -62.94,-58.1 -59.55,-58.1 C-59.55,-58.1 59.51,-58.1 59.51,-58.1 C62.89,-58.1 65.65,-55.35 65.65,-51.97 C65.65,-51.97 65.65,26.73 65.65,26.73 C65.65,30.11 62.89,32.86 59.51,32.86 C59.51,32.86 59.51,32.86 59.51,32.86z M-59.56,-56.01 C-61.78,-56.01 -63.6,-54.2 -63.6,-51.97 C-63.6,-51.97 -63.6,26.73 -63.6,26.73 C-63.6,28.96 -61.78,30.77 -59.56,30.77 C-59.56,30.77 59.51,30.77 59.51,30.77 C61.74,30.77 63.56,28.96 63.56,26.73 C63.56,26.73 63.56,-51.97 63.56,-51.97 C63.56,-54.2 61.74,-56.01 59.51,-56.01 C59.51,-56.01 -59.56,-56.01 -59.56,-56.01z M-0.06,28.85 C-1.74,28.85 -3.11,27.49 -3.11,25.81 C-3.11,24.13 -1.74,22.76 -0.06,22.76 C1.63,22.76 2.99,24.13 2.99,25.81 C2.99,27.49 1.63,28.85 -0.06,28.85 M-0.06,24.85 C-0.59,24.85 -1.02,25.28 -1.02,25.81 C-1.02,26.33 -0.59,26.76 -0.06,26.76 C0.47,26.76 0.9,26.33 0.9,25.81 C0.9,25.28 0.47,24.85 -0.06,24.85 M28.131000518798828,58.097999572753906 C28.131000518798828,58.097999572753906 -27.9689998626709,58.097999572753906 -27.9689998626709,58.097999572753906 C-28.548999786376953,58.097999572753906 -29.018999099731445,57.62799835205078 -29.018999099731445,57.05799865722656 C-29.018999099731445,56.47800064086914 -28.548999786376953,56.007999420166016 -27.9689998626709,56.007999420166016 C-27.9689998626709,56.007999420166016 28.131000518798828,56.007999420166016 28.131000518798828,56.007999420166016 C28.711000442504883,56.007999420166016 29.180999755859375,56.47800064086914 29.180999755859375,57.05799865722656 C29.180999755859375,57.62799835205078 28.711000442504883,58.097999572753906 28.131000518798828,58.097999572753906 M14.970999717712402,57.505001068115234 C14.390999794006348,57.505001068115234 13.920999526977539,57.03499984741211 13.920999526977539,56.45500183105469 C13.920999526977539,56.45500183105469 13.920999526977539,32.26499938964844 13.920999526977539,32.26499938964844 C13.920999526977539,31.684999465942383 14.390999794006348,31.21500015258789 14.970999717712402,31.21500015258789 C15.550999641418457,31.21500015258789 16.01099967956543,31.684999465942383 16.01099967956543,32.26499938964844 C16.01099967956543,32.26499938964844 16.01099967956543,56.45500183105469 16.01099967956543,56.45500183105469 C16.01099967956543,57.03499984741211 15.550999641418457,57.505001068115234 14.970999717712402,57.505001068115234 M-14.95300006866455,57.505001068115234 C-15.532999992370605,57.505001068115234 -16.003000259399414,57.03499984741211 -16.003000259399414,56.45500183105469 C-16.003000259399414,56.45500183105469 -16.003000259399414,32.26499938964844 -16.003000259399414,32.26499938964844 C-16.003000259399414,31.684999465942383 -15.532999992370605,31.21500015258789 -14.95300006866455,31.21500015258789 C-14.373000144958496,31.21500015258789 -13.913000106811523,31.684999465942383 -13.913000106811523,32.26499938964844 C-13.913000106811523,32.26499938964844 -13.913000106811523,56.45500183105469 -13.913000106811523,56.45500183105469 C-13.913000106811523,57.03499984741211 -14.373000144958496,57.505001068115234 -14.95300006866455,57.505001068115234 M64.64399719238281,20.909000396728516 C64.64399719238281,20.909000396728516 -64.6259994506836,20.909000396728516 -64.6259994506836,20.909000396728516 C-65.20600128173828,20.909000396728516 -65.6760025024414,20.43899917602539 -65.6760025024414,19.868999481201172 C-65.6760025024414,19.288999557495117 -65.20600128173828,18.819000244140625 -64.6259994506836,18.819000244140625 C-64.6259994506836,18.819000244140625 64.64399719238281,18.819000244140625 64.64399719238281,18.819000244140625 C65.2239990234375,18.819000244140625 65.69400024414062,19.288999557495117 65.69400024414062,19.868999481201172 C65.69400024414062,20.43899917602539 65.2239990234375,20.909000396728516 64.64399719238281,20.909000396728516"></path><g opacity="1" transform="matrix(1,0,0,1,0,0)"><g opacity="1" transform="matrix(1,0,0,1,0,-2.944999933242798)"></g><g opacity="1" transform="matrix(1,0,0,1,-0.020999999716877937,-12.619999885559082)"></g><g opacity="1" transform="matrix(1,0,0,1,-0.05999999865889549,25.804000854492188)"></g></g></g></g><g style="display: none;"><g><path></path><g></g></g></g><g style="display: none;"><g><path></path><g></g><g><g></g><g></g></g></g></g><g style="display: none;"><g><path></path><g></g></g></g><g style="display: none;"><g><path></path><g><g></g><g></g></g></g></g></g></svg>