<?xml version="1.0" encoding="UTF-8"?>
<svg xmlns="http://www.w3.org/2000/svg" xmlns:xlink="http://www.w3.org/1999/xlink" viewBox="0 0 705 600" width="705" height="600" preserveAspectRatio="xMidYMid meet" style="width: 100%; height: 100%; transform: translate3d(0px, 0px, 0px); content-visibility: visible;"><defs><clipPath id="__lottie_element_515"><rect width="705" height="600" x="0" y="0"></rect></clipPath></defs><g clip-path="url(#__lottie_element_515)"><g transform="matrix(0.6636399626731873,0,0,0.6636399626731873,348.91900634765625,277.30999755859375)" opacity="1" style="display: block;"><g opacity="1" transform="matrix(3,0,0,3,0,0)"><path fill="#1E243A" fill-opacity="1" d=" M0.09200000017881393,27.33799934387207 C-4.0279998779296875,27.33799934387207 -7.877999782562256,26.908000946044922 -10.748000144958496,26.13800048828125 C-14.418000221252441,25.13800048828125 -16.277999877929688,23.648000717163086 -16.277999877929688,21.687999725341797 C-16.277999877929688,21.148000717163086 -15.847999572753906,20.718000411987305 -15.307999610900879,20.718000411987305 C-14.777999877929688,20.718000411987305 -14.347999572753906,21.148000717163086 -14.347999572753906,21.687999725341797 C-14.347999572753906,23.47800064086914 -8.82800006866455,25.408000946044922 0.09200000017881393,25.408000946044922 C9.001999855041504,25.408000946044922 14.522000312805176,23.47800064086914 14.522000312805176,21.687999725341797 C14.522000312805176,21.148000717163086 14.961999893188477,20.718000411987305 15.491999626159668,20.718000411987305 C16.031999588012695,20.718000411987305 16.461999893188477,21.148000717163086 16.461999893188477,21.687999725341797 C16.461999893188477,23.648000717163086 14.60200023651123,25.13800048828125 10.932000160217285,26.13800048828125 C8.062000274658203,26.908000946044922 4.211999893188477,27.33799934387207 0.09200000017881393,27.33799934387207 M-15.87,-8.52 C-17.15,-8.52 -18.55,-8.68 -20.07,-9.03 C-20.39,-9.11 -20.65,-9.34 -20.76,-9.65 C-20.87,-9.95 -20.82,-10.3 -20.62,-10.56 C-18.23,-13.72 -18.71,-14.73 -19.44,-16.25 C-19.86,-17.13 -20.39,-18.22 -20.39,-19.77 C-20.39,-22.84 -19.13,-26.17 -17.02,-28.67 C-15.21,-30.82 -11.94,-33.37 -6.64,-33.37 C-3.54,-33.37 0.54,-33.04 3.68,-30.68 C3.74,-30.72 3.8,-30.75 3.87,-30.77 C5.17,-31.23 6.54,-31.47 7.94,-31.47 C14.64,-31.47 20.09,-26.02 20.09,-19.31 C20.09,-16.68 19.26,-14.17 17.69,-12.06 C17.53,-11.84 17.28,-11.7 17.01,-11.68 C16.74,-11.65 16.47,-11.73 16.27,-11.91 C14.82,-13.2 12.9,-14 11.05,-14.77 C8.58,-15.79 6.03,-16.84 4.85,-19.1 C1.41,-19.57 -0.76,-17.45 -3.49,-14.79 C-6.41,-11.94 -9.92,-8.52 -15.87,-8.52 M-18.21,-10.63 C-11.58,-9.6 -8.16,-12.94 -4.83,-16.17 C-1.98,-18.97 0.98,-21.85 5.69,-20.92 C6.01,-20.85 6.28,-20.63 6.4,-20.33 C7.15,-18.47 9.29,-17.58 11.79,-16.55 C13.45,-15.85 15.19,-15.14 16.7,-14.04 C17.65,-15.63 18.15,-17.43 18.15,-19.31 C18.15,-24.94 13.58,-29.53 7.94,-29.53 C7.03,-29.53 6.15,-29.41 5.28,-29.18 C5.67,-28.76 6.01,-28.28 6.34,-27.77 C6.61,-27.31 6.47,-26.72 6.01,-26.44 C5.57,-26.15 4.96,-26.29 4.69,-26.75 C2.69,-29.99 -0.81,-31.43 -6.64,-31.43 C-14.7,-31.43 -18.45,-24.47 -18.45,-19.76 C-18.45,-18.66 -18.09,-17.89 -17.7,-17.08 C-16.8,-15.22 -16.33,-13.62 -18.21,-10.63 M-31.408000946044922,30.933000564575195 C-31.47800064086914,30.933000564575195 -31.538000106811523,30.933000564575195 -31.607999801635742,30.92300033569336 C-32.12799835205078,30.812999725341797 -32.46799850463867,30.30299949645996 -32.358001708984375,29.773000717163086 C-31.378000259399414,24.982999801635742 -29.107999801635742,23.093000411987305 -23.027999877929688,22.003000259399414 C-23.027999877929688,22.003000259399414 -14.727999687194824,20.042999267578125 -14.727999687194824,20.042999267578125 C-12.64799976348877,19.55299949645996 -11.14799976348877,17.67300033569336 -11.14799976348877,15.583000183105469 C-11.14799976348877,15.583000183105469 -11.14799976348877,7.922999858856201 -11.14799976348877,7.922999858856201 C-11.14799976348877,7.382999897003174 -10.708000183105469,6.953000068664551 -10.178000450134277,6.953000068664551 C-9.637999534606934,6.953000068664551 -9.208000183105469,7.382999897003174 -9.208000183105469,7.922999858856201 C-9.208000183105469,7.922999858856201 -9.208000183105469,15.583000183105469 -9.208000183105469,15.583000183105469 C-9.208000183105469,18.562999725341797 -11.338000297546387,21.222999572753906 -14.277999877929688,21.92300033569336 C-14.277999877929688,21.92300033569336 -22.607999801635742,23.89299964904785 -22.607999801635742,23.89299964904785 C-22.628000259399414,23.89299964904785 -22.648000717163086,23.89299964904785 -22.658000946044922,23.902999877929688 C-28.488000869750977,24.94300079345703 -29.738000869750977,26.60300064086914 -30.45800018310547,30.163000106811523 C-30.558000564575195,30.62299919128418 -30.95800018310547,30.933000564575195 -31.408000946044922,30.933000564575195 M31.60099983215332,30.933000564575195 C31.150999069213867,30.933000564575195 30.740999221801758,30.62299919128418 30.650999069213867,30.163000106811523 C29.981000900268555,26.882999420166016 27.60099983215332,25.003000259399414 22.701000213623047,23.89299964904785 C22.701000213623047,23.89299964904785 14.461000442504883,21.92300033569336 14.461000442504883,21.92300033569336 C11.571000099182129,21.232999801635742 9.541000366210938,18.62299919128418 9.541000366210938,15.583000183105469 C9.541000366210938,15.583000183105469 9.541000366210938,7.922999858856201 9.541000366210938,7.922999858856201 C9.541000366210938,7.382999897003174 9.970999717712402,6.953000068664551 10.51099967956543,6.953000068664551 C11.041000366210938,6.953000068664551 11.470999717712402,7.382999897003174 11.470999717712402,7.922999858856201 C11.470999717712402,7.922999858856201 11.470999717712402,15.583000183105469 11.470999717712402,15.583000183105469 C11.470999717712402,17.722999572753906 12.890999794006348,19.562999725341797 14.91100025177002,20.042999267578125 C14.91100025177002,20.042999267578125 23.141000747680664,22.003000259399414 23.141000747680664,22.003000259399414 C26.951000213623047,22.87299919128418 31.47100067138672,24.542999267578125 32.55099868774414,29.773000717163086 C32.6510009765625,30.30299949645996 32.31100082397461,30.812999725341797 31.791000366210938,30.92300033569336 C31.731000900268555,30.933000564575195 31.660999298095703,30.933000564575195 31.60099983215332,30.933000564575195 M2.805999994277954,14.168000221252441 C2.805999994277954,14.168000221252441 -2.803999900817871,14.168000221252441 -2.803999900817871,14.168000221252441 C-4.383999824523926,14.168000221252441 -5.854000091552734,13.57800006866455 -6.934000015258789,12.48799991607666 C-6.934000015258789,12.48799991607666 -14.46399974822998,4.98799991607666 -14.46399974822998,4.98799991607666 C-16.354000091552734,3.0980000495910645 -17.393999099731445,0.5479999780654907 -17.393999099731445,-2.181999921798706 C-17.393999099731445,-2.181999921798706 -17.393999099731445,-9.491999626159668 -17.393999099731445,-9.491999626159668 C-17.393999099731445,-10.022000312805176 -16.964000701904297,-10.461999893188477 -16.423999786376953,-10.461999893188477 C-15.894000053405762,-10.461999893188477 -15.46399974822998,-10.022000312805176 -15.46399974822998,-9.491999626159668 C-15.46399974822998,-9.491999626159668 -15.46399974822998,-2.181999921798706 -15.46399974822998,-2.181999921798706 C-15.46399974822998,0.03799999877810478 -14.62399959564209,2.0980000495910645 -13.093999862670898,3.618000030517578 C-13.093999862670898,3.618000030517578 -5.573999881744385,11.118000030517578 -5.573999881744385,11.118000030517578 C-4.854000091552734,11.838000297546387 -3.874000072479248,12.23799991607666 -2.803999900817871,12.23799991607666 C-2.803999900817871,12.23799991607666 2.805999994277954,12.23799991607666 2.805999994277954,12.23799991607666 C3.885999917984009,12.23799991607666 4.875999927520752,11.838000297546387 5.585999965667725,11.128000259399414 C5.585999965667725,11.128000259399414 13.185999870300293,3.5980000495910645 13.185999870300293,3.5980000495910645 C14.765999794006348,2.0179998874664307 15.645999908447266,-0.041999999433755875 15.645999908447266,-2.181999921798706 C15.645999908447266,-2.181999921798706 15.645999908447266,-12.76200008392334 15.645999908447266,-12.76200008392334 C15.645999908447266,-13.302000045776367 16.076000213623047,-13.732000350952148 16.606000900268555,-13.732000350952148 C17.145999908447266,-13.732000350952148 17.576000213623047,-13.302000045776367 17.576000213623047,-12.76200008392334 C17.576000213623047,-12.76200008392334 17.576000213623047,-2.181999921798706 17.576000213623047,-2.181999921798706 C17.576000213623047,0.4779999852180481 16.506000518798828,3.0179998874664307 14.555999755859375,4.9679999351501465 C14.555999755859375,4.9679999351501465 6.955999851226807,12.498000144958496 6.955999851226807,12.498000144958496 C5.875999927520752,13.57800006866455 4.395999908447266,14.168000221252441 2.805999994277954,14.168000221252441 M-0.004999999888241291,44.91400146484375 C-11.994999885559082,44.91400146484375 -23.274999618530273,40.24399948120117 -31.7549991607666,31.763999938964844 C-40.244998931884766,23.27400016784668 -44.915000915527344,11.994000434875488 -44.915000915527344,0.004000000189989805 C-44.915000915527344,-11.996000289916992 -40.244998931884766,-23.275999069213867 -31.7549991607666,-31.756000518798828 C-23.274999618530273,-40.24599838256836 -11.994999885559082,-44.91600036621094 -0.004999999888241291,-44.91600036621094 C11.994999885559082,-44.91600036621094 23.274999618530273,-40.24599838256836 31.7549991607666,-31.756000518798828 C40.244998931884766,-23.275999069213867 44.915000915527344,-11.996000289916992 44.915000915527344,0.004000000189989805 C44.915000915527344,11.994000434875488 40.244998931884766,23.27400016784668 31.7549991607666,31.763999938964844 C23.274999618530273,40.24399948120117 11.994999885559082,44.91400146484375 -0.004999999888241291,44.91400146484375 M0,-42.98099899291992 C-23.700000762939453,-42.98099899291992 -42.97999954223633,-23.701000213623047 -42.97999954223633,-0.0010000000474974513 C-42.97999954223633,23.698999404907227 -23.700000762939453,42.979000091552734 0,42.979000091552734 C23.700000762939453,42.979000091552734 42.97999954223633,23.698999404907227 42.97999954223633,-0.0010000000474974513 C42.97999954223633,-23.701000213623047 23.700000762939453,-42.98099899291992 0,-42.98099899291992"></path><g opacity="1" transform="matrix(1,0,0,1,-0.367000013589859,-20.94300079345703)"></g><g opacity="1" transform="matrix(1,0,0,1,0,0)"></g></g></g><g style="display: none;"><g><path></path><g></g><g></g></g></g><g style="display: none;"><g><path></path><g></g><g></g></g></g><g style="display: none;"><g><path></path><g><g><g></g><g></g><g></g></g><g></g></g></g></g><g style="display: none;"><g><path></path><g></g><g></g></g></g><g style="display: none;"><g><path></path></g></g><g style="display: none;"><g><path></path><g></g><g></g></g></g><g style="display: none;"><g><path></path></g></g><g style="display: none;"><g><path></path><g></g><g></g></g></g></g></svg>